G75*
%MOIN*%
%OFA0B0*%
%FSLAX25Y25*%
%IPPOS*%
%LPD*%
%AMOC8*
5,1,8,0,0,1.08239X$1,22.5*
%
%ADD10C,0.00000*%
%ADD11OC8,0.05600*%
%ADD12C,0.05600*%
%ADD13C,0.05550*%
%ADD14C,0.11620*%
%ADD15C,0.05600*%
%ADD16C,0.06337*%
%ADD17C,0.07800*%
D10*
X0001800Y0001800D02*
X0001800Y0198650D01*
X0198650Y0198650D01*
X0198650Y0001800D01*
X0001800Y0001800D01*
D11*
X0026800Y0031800D03*
X0041800Y0031800D03*
X0056800Y0036800D03*
X0066800Y0036800D03*
X0041800Y0071800D03*
X0026800Y0071800D03*
X0111800Y0011800D03*
X0121800Y0011800D03*
X0146800Y0011800D03*
X0186800Y0011800D03*
X0151800Y0086800D03*
X0126800Y0151800D03*
X0126800Y0161800D03*
X0121800Y0176800D03*
X0131800Y0176800D03*
X0131800Y0191800D03*
X0121800Y0191800D03*
X0106800Y0186800D03*
X0101800Y0194300D03*
X0096800Y0186800D03*
X0146800Y0156800D03*
X0156800Y0191800D03*
X0181800Y0186800D03*
X0191800Y0186800D03*
X0186800Y0156800D03*
D12*
X0156800Y0171800D03*
X0131800Y0086800D03*
D13*
X0074674Y0189300D03*
X0066800Y0189300D03*
X0058926Y0189300D03*
X0030599Y0161721D03*
X0027450Y0166446D03*
X0024300Y0161721D03*
X0021150Y0166446D03*
X0018001Y0161721D03*
D14*
X0009930Y0181800D03*
X0038670Y0181800D03*
D15*
X0079200Y0161800D02*
X0084400Y0161800D01*
X0084400Y0151800D02*
X0079200Y0151800D01*
X0079200Y0141800D02*
X0084400Y0141800D01*
X0084400Y0131800D02*
X0079200Y0131800D01*
X0079200Y0121800D02*
X0084400Y0121800D01*
X0084400Y0111800D02*
X0079200Y0111800D01*
X0079200Y0101800D02*
X0084400Y0101800D01*
X0084400Y0091800D02*
X0079200Y0091800D01*
X0079200Y0081800D02*
X0084400Y0081800D01*
X0084400Y0071800D02*
X0079200Y0071800D01*
X0079200Y0061800D02*
X0084400Y0061800D01*
X0084400Y0051800D02*
X0079200Y0051800D01*
X0079200Y0041800D02*
X0084400Y0041800D01*
X0084400Y0031800D02*
X0079200Y0031800D01*
X0109200Y0031800D02*
X0114400Y0031800D01*
X0114400Y0041800D02*
X0109200Y0041800D01*
X0109200Y0051800D02*
X0114400Y0051800D01*
X0114400Y0061800D02*
X0109200Y0061800D01*
X0109200Y0071800D02*
X0114400Y0071800D01*
X0114400Y0081800D02*
X0109200Y0081800D01*
X0109200Y0091800D02*
X0114400Y0091800D01*
X0114400Y0101800D02*
X0109200Y0101800D01*
X0109200Y0111800D02*
X0114400Y0111800D01*
X0114400Y0121800D02*
X0109200Y0121800D01*
X0109200Y0131800D02*
X0114400Y0131800D01*
X0114400Y0141800D02*
X0109200Y0141800D01*
X0109200Y0151800D02*
X0114400Y0151800D01*
X0114400Y0161800D02*
X0109200Y0161800D01*
D16*
X0082548Y0189300D03*
X0051052Y0189300D03*
D17*
X0006800Y0141800D03*
X0006800Y0131800D03*
X0006800Y0121800D03*
X0006800Y0111800D03*
X0006800Y0101800D03*
X0006800Y0091800D03*
X0006800Y0081800D03*
X0006800Y0071800D03*
X0006800Y0061800D03*
X0006800Y0051800D03*
X0006800Y0041800D03*
X0006800Y0031800D03*
X0006800Y0021800D03*
X0021800Y0011800D03*
X0041800Y0011800D03*
X0066800Y0011800D03*
X0086800Y0011800D03*
X0066800Y0066800D03*
X0066800Y0076800D03*
X0066800Y0086800D03*
X0193050Y0081800D03*
X0193050Y0071800D03*
X0193050Y0091800D03*
X0193050Y0101800D03*
X0193050Y0111800D03*
X0193050Y0121800D03*
X0193050Y0131800D03*
X0193050Y0141800D03*
M02*
