%
M48
M72
T01C0.01900
T02C0.03150
T03C0.03200
T04C0.03937
T05C0.04000
T06C0.07480
%
T01
X61800Y56800
X51800Y81800
X51800Y91800
X26800Y101800
X66800Y161800
X91800Y156800
X101800Y166800
X91800Y131800
X96800Y121800
X101800Y116800
X101800Y61800
X91800Y51800
X96800Y31800
X101800Y21800
X101800Y11800
X171800Y96800
T02
X18001Y161721
X21150Y166446
X24300Y161721
X27450Y166446
X30599Y161721
X58926Y189300
X66800Y189300
X74674Y189300
T03
X81800Y161800
X81800Y151800
X81800Y141800
X81800Y131800
X81800Y121800
X81800Y111800
X81800Y101800
X81800Y91800
X81800Y81800
X81800Y71800
X81800Y61800
X81800Y51800
X81800Y41800
X81800Y31800
X66800Y36800
X56800Y36800
X41800Y31800
X26800Y31800
X26800Y71800
X41800Y71800
X111800Y71800
X111800Y61800
X111800Y51800
X111800Y41800
X111800Y31800
X111800Y11800
X121800Y11800
X146800Y11800
X186800Y11800
X151800Y86800
X131800Y86800
X111800Y81800
X111800Y91800
X111800Y101800
X111800Y111800
X111800Y121800
X111800Y131800
X111800Y141800
X111800Y151800
X111800Y161800
X126800Y161800
X126800Y151800
X146800Y156800
X156800Y171800
X156800Y191800
X131800Y191800
X121800Y191800
X121800Y176800
X131800Y176800
X106800Y186800
X101800Y194300
X96800Y186800
X181800Y186800
X191800Y186800
X186800Y156800
T04
X51052Y189300
X82548Y189300
T05
X6800Y141800
X6800Y131800
X6800Y121800
X6800Y111800
X6800Y101800
X6800Y91800
X6800Y81800
X6800Y71800
X6800Y61800
X6800Y51800
X6800Y41800
X6800Y31800
X6800Y21800
X21800Y11800
X41800Y11800
X66800Y11800
X86800Y11800
X66800Y66800
X66800Y76800
X66800Y86800
X193050Y81800
X193050Y71800
X193050Y91800
X193050Y101800
X193050Y111800
X193050Y121800
X193050Y131800
X193050Y141800
T06
X9930Y181800
X38670Y181800
M30
