G75*
%MOIN*%
%OFA0B0*%
%FSLAX25Y25*%
%IPPOS*%
%LPD*%
%AMOC8*
5,1,8,0,0,1.08239X$1,22.5*
%
%ADD10C,0.00000*%
%ADD11C,0.00300*%
%ADD12C,0.00400*%
%ADD13C,0.00600*%
%ADD14C,0.01000*%
%ADD15C,0.00500*%
%ADD16R,0.02000X0.10000*%
%ADD17R,0.10000X0.02000*%
%ADD18R,0.03400X0.02400*%
%ADD19R,0.02400X0.03400*%
%ADD20C,0.00700*%
%ADD21C,0.01600*%
%ADD22C,0.00800*%
D10*
X0001800Y0001800D02*
X0001800Y0198650D01*
X0198650Y0198650D01*
X0198650Y0001800D01*
X0001800Y0001800D01*
D11*
X0012434Y0071950D02*
X0013401Y0071950D01*
X0013885Y0072434D01*
X0013885Y0073401D01*
X0012917Y0073401D01*
X0011950Y0072434D02*
X0012434Y0071950D01*
X0011950Y0072434D02*
X0011950Y0074369D01*
X0012434Y0074852D01*
X0013401Y0074852D01*
X0013885Y0074369D01*
X0014897Y0074852D02*
X0014897Y0071950D01*
X0016831Y0071950D02*
X0016831Y0074852D01*
X0017843Y0074852D02*
X0019294Y0074852D01*
X0019778Y0074369D01*
X0019778Y0072434D01*
X0019294Y0071950D01*
X0017843Y0071950D01*
X0017843Y0074852D01*
X0014897Y0074852D02*
X0016831Y0071950D01*
X0015864Y0081950D02*
X0016831Y0083885D01*
X0017843Y0084369D02*
X0018327Y0084852D01*
X0019294Y0084852D01*
X0019778Y0084369D01*
X0019778Y0083885D01*
X0019294Y0083401D01*
X0019778Y0082917D01*
X0019778Y0082434D01*
X0019294Y0081950D01*
X0018327Y0081950D01*
X0017843Y0082434D01*
X0018811Y0083401D02*
X0019294Y0083401D01*
X0015864Y0081950D02*
X0014897Y0083885D01*
X0013885Y0083885D02*
X0013401Y0083401D01*
X0013885Y0082917D01*
X0013885Y0082434D01*
X0013401Y0081950D01*
X0012434Y0081950D01*
X0011950Y0082434D01*
X0012917Y0083401D02*
X0013401Y0083401D01*
X0013885Y0083885D02*
X0013885Y0084369D01*
X0013401Y0084852D01*
X0012434Y0084852D01*
X0011950Y0084369D01*
X0011950Y0091950D02*
X0011950Y0093885D01*
X0012917Y0094852D01*
X0013885Y0093885D01*
X0013885Y0091950D01*
X0013885Y0093401D02*
X0011950Y0093401D01*
X0014897Y0093401D02*
X0016831Y0093401D01*
X0016348Y0091950D02*
X0016348Y0094852D01*
X0014897Y0093401D01*
X0017843Y0091950D02*
X0019778Y0094852D01*
X0020790Y0094852D02*
X0020790Y0091950D01*
X0022725Y0091950D01*
X0023736Y0091950D02*
X0025671Y0091950D01*
X0026683Y0091950D02*
X0026683Y0094852D01*
X0028134Y0094852D01*
X0028618Y0094369D01*
X0028618Y0092434D01*
X0028134Y0091950D01*
X0026683Y0091950D01*
X0024704Y0093401D02*
X0023736Y0093401D01*
X0023736Y0094852D02*
X0023736Y0091950D01*
X0023736Y0094852D02*
X0025671Y0094852D01*
X0025187Y0101950D02*
X0024220Y0101950D01*
X0023736Y0102434D01*
X0022725Y0102434D02*
X0022725Y0104852D01*
X0023736Y0104369D02*
X0023736Y0103885D01*
X0024220Y0103401D01*
X0025187Y0103401D01*
X0025671Y0102917D01*
X0025671Y0102434D01*
X0025187Y0101950D01*
X0026683Y0101950D02*
X0026683Y0104852D01*
X0028618Y0104852D01*
X0029629Y0104852D02*
X0031080Y0104852D01*
X0031564Y0104369D01*
X0031564Y0103401D01*
X0031080Y0102917D01*
X0029629Y0102917D01*
X0029629Y0101950D02*
X0029629Y0104852D01*
X0030597Y0102917D02*
X0031564Y0101950D01*
X0028618Y0101950D02*
X0026683Y0101950D01*
X0026683Y0103401D02*
X0027650Y0103401D01*
X0025671Y0104369D02*
X0025187Y0104852D01*
X0024220Y0104852D01*
X0023736Y0104369D01*
X0022725Y0102434D02*
X0022241Y0101950D01*
X0021273Y0101950D01*
X0020790Y0102434D01*
X0020790Y0104852D01*
X0019778Y0104852D02*
X0017843Y0101950D01*
X0016348Y0101950D02*
X0016348Y0104852D01*
X0014897Y0103401D01*
X0016831Y0103401D01*
X0013885Y0102917D02*
X0013885Y0102434D01*
X0013401Y0101950D01*
X0011950Y0101950D01*
X0011950Y0104852D01*
X0013401Y0104852D01*
X0013885Y0104369D01*
X0013885Y0103885D01*
X0013401Y0103401D01*
X0011950Y0103401D01*
X0013401Y0103401D02*
X0013885Y0102917D01*
X0013401Y0111950D02*
X0011950Y0111950D01*
X0011950Y0114852D01*
X0013401Y0114852D01*
X0013885Y0114369D01*
X0013885Y0113885D01*
X0013401Y0113401D01*
X0011950Y0113401D01*
X0013401Y0113401D02*
X0013885Y0112917D01*
X0013885Y0112434D01*
X0013401Y0111950D01*
X0014897Y0112434D02*
X0015380Y0111950D01*
X0016348Y0111950D01*
X0016831Y0112434D01*
X0016831Y0112917D01*
X0016348Y0113401D01*
X0015864Y0113401D01*
X0016348Y0113401D02*
X0016831Y0113885D01*
X0016831Y0114369D01*
X0016348Y0114852D01*
X0015380Y0114852D01*
X0014897Y0114369D01*
X0014897Y0121950D02*
X0016831Y0123885D01*
X0016831Y0124369D01*
X0016348Y0124852D01*
X0015380Y0124852D01*
X0014897Y0124369D01*
X0013885Y0124369D02*
X0013885Y0123885D01*
X0013401Y0123401D01*
X0011950Y0123401D01*
X0011950Y0121950D02*
X0013401Y0121950D01*
X0013885Y0122434D01*
X0013885Y0122917D01*
X0013401Y0123401D01*
X0013885Y0124369D02*
X0013401Y0124852D01*
X0011950Y0124852D01*
X0011950Y0121950D01*
X0014897Y0121950D02*
X0016831Y0121950D01*
X0016831Y0131950D02*
X0014897Y0131950D01*
X0015864Y0131950D02*
X0015864Y0134852D01*
X0014897Y0133885D01*
X0013885Y0133885D02*
X0013885Y0131950D01*
X0013885Y0133401D02*
X0011950Y0133401D01*
X0011950Y0133885D02*
X0012917Y0134852D01*
X0013885Y0133885D01*
X0011950Y0133885D02*
X0011950Y0131950D01*
X0011950Y0141950D02*
X0011950Y0143885D01*
X0012917Y0144852D01*
X0013885Y0143885D01*
X0013885Y0141950D01*
X0014897Y0142434D02*
X0014897Y0144369D01*
X0015380Y0144852D01*
X0016348Y0144852D01*
X0016831Y0144369D01*
X0014897Y0142434D01*
X0015380Y0141950D01*
X0016348Y0141950D01*
X0016831Y0142434D01*
X0016831Y0144369D01*
X0013885Y0143401D02*
X0011950Y0143401D01*
X0086950Y0182434D02*
X0087434Y0181950D01*
X0088401Y0181950D01*
X0088885Y0182434D01*
X0088885Y0183401D01*
X0087917Y0183401D01*
X0086950Y0182434D02*
X0086950Y0184369D01*
X0087434Y0184852D01*
X0088401Y0184852D01*
X0088885Y0184369D01*
X0089897Y0184852D02*
X0091831Y0181950D01*
X0091831Y0184852D01*
X0092843Y0184852D02*
X0094294Y0184852D01*
X0094778Y0184369D01*
X0094778Y0182434D01*
X0094294Y0181950D01*
X0092843Y0181950D01*
X0092843Y0184852D01*
X0089897Y0184852D02*
X0089897Y0181950D01*
X0181950Y0144852D02*
X0181950Y0141950D01*
X0183401Y0141950D01*
X0183885Y0142434D01*
X0183885Y0142917D01*
X0183401Y0143401D01*
X0181950Y0143401D01*
X0183401Y0143401D02*
X0183885Y0143885D01*
X0183885Y0144369D01*
X0183401Y0144852D01*
X0181950Y0144852D01*
X0184897Y0143885D02*
X0185864Y0144852D01*
X0185864Y0141950D01*
X0184897Y0141950D02*
X0186831Y0141950D01*
X0187843Y0142434D02*
X0188327Y0141950D01*
X0189294Y0141950D01*
X0189778Y0142434D01*
X0189778Y0143401D01*
X0189294Y0143885D01*
X0188811Y0143885D01*
X0187843Y0143401D01*
X0187843Y0144852D01*
X0189778Y0144852D01*
X0189294Y0134852D02*
X0187843Y0133401D01*
X0189778Y0133401D01*
X0189294Y0131950D02*
X0189294Y0134852D01*
X0185864Y0134852D02*
X0185864Y0131950D01*
X0184897Y0131950D02*
X0186831Y0131950D01*
X0184897Y0133885D02*
X0185864Y0134852D01*
X0183885Y0134369D02*
X0183885Y0133885D01*
X0183401Y0133401D01*
X0181950Y0133401D01*
X0181950Y0131950D02*
X0183401Y0131950D01*
X0183885Y0132434D01*
X0183885Y0132917D01*
X0183401Y0133401D01*
X0183885Y0134369D02*
X0183401Y0134852D01*
X0181950Y0134852D01*
X0181950Y0131950D01*
X0181950Y0124852D02*
X0183401Y0124852D01*
X0183885Y0124369D01*
X0183885Y0123885D01*
X0183401Y0123401D01*
X0181950Y0123401D01*
X0181950Y0121950D02*
X0183401Y0121950D01*
X0183885Y0122434D01*
X0183885Y0122917D01*
X0183401Y0123401D01*
X0184897Y0123885D02*
X0185864Y0124852D01*
X0185864Y0121950D01*
X0184897Y0121950D02*
X0186831Y0121950D01*
X0187843Y0122434D02*
X0188327Y0121950D01*
X0189294Y0121950D01*
X0189778Y0122434D01*
X0189778Y0122917D01*
X0189294Y0123401D01*
X0188811Y0123401D01*
X0189294Y0123401D02*
X0189778Y0123885D01*
X0189778Y0124369D01*
X0189294Y0124852D01*
X0188327Y0124852D01*
X0187843Y0124369D01*
X0181950Y0124852D02*
X0181950Y0121950D01*
X0184450Y0114852D02*
X0185901Y0114852D01*
X0186385Y0114369D01*
X0186385Y0113885D01*
X0185901Y0113401D01*
X0184450Y0113401D01*
X0184450Y0111950D02*
X0185901Y0111950D01*
X0186385Y0112434D01*
X0186385Y0112917D01*
X0185901Y0113401D01*
X0187397Y0113885D02*
X0187880Y0113401D01*
X0189331Y0113401D01*
X0189331Y0112434D02*
X0189331Y0114369D01*
X0188848Y0114852D01*
X0187880Y0114852D01*
X0187397Y0114369D01*
X0187397Y0113885D01*
X0187397Y0112434D02*
X0187880Y0111950D01*
X0188848Y0111950D01*
X0189331Y0112434D01*
X0184450Y0111950D02*
X0184450Y0114852D01*
X0184450Y0104852D02*
X0185901Y0104852D01*
X0186385Y0104369D01*
X0186385Y0103885D01*
X0185901Y0103401D01*
X0184450Y0103401D01*
X0184450Y0101950D02*
X0185901Y0101950D01*
X0186385Y0102434D01*
X0186385Y0102917D01*
X0185901Y0103401D01*
X0187397Y0102917D02*
X0187880Y0103401D01*
X0188848Y0103401D01*
X0189331Y0102917D01*
X0189331Y0102434D01*
X0188848Y0101950D01*
X0187880Y0101950D01*
X0187397Y0102434D01*
X0187397Y0102917D01*
X0187880Y0103401D02*
X0187397Y0103885D01*
X0187397Y0104369D01*
X0187880Y0104852D01*
X0188848Y0104852D01*
X0189331Y0104369D01*
X0189331Y0103885D01*
X0188848Y0103401D01*
X0184450Y0101950D02*
X0184450Y0104852D01*
X0184450Y0094852D02*
X0185901Y0094852D01*
X0186385Y0094369D01*
X0186385Y0093885D01*
X0185901Y0093401D01*
X0184450Y0093401D01*
X0184450Y0091950D02*
X0184450Y0094852D01*
X0185901Y0093401D02*
X0186385Y0092917D01*
X0186385Y0092434D01*
X0185901Y0091950D01*
X0184450Y0091950D01*
X0187397Y0091950D02*
X0187397Y0092434D01*
X0189331Y0094369D01*
X0189331Y0094852D01*
X0187397Y0094852D01*
X0187397Y0084852D02*
X0187397Y0082917D01*
X0188364Y0081950D01*
X0189331Y0082917D01*
X0189331Y0084852D01*
X0186385Y0084852D02*
X0184450Y0084852D01*
X0184450Y0083401D01*
X0185417Y0083885D01*
X0185901Y0083885D01*
X0186385Y0083401D01*
X0186385Y0082434D01*
X0185901Y0081950D01*
X0184934Y0081950D01*
X0184450Y0082434D01*
X0184897Y0074852D02*
X0186831Y0071950D01*
X0186831Y0074852D01*
X0187843Y0074852D02*
X0189294Y0074852D01*
X0189778Y0074369D01*
X0189778Y0072434D01*
X0189294Y0071950D01*
X0187843Y0071950D01*
X0187843Y0074852D01*
X0184897Y0074852D02*
X0184897Y0071950D01*
X0183885Y0072434D02*
X0183401Y0071950D01*
X0182434Y0071950D01*
X0181950Y0072434D01*
X0181950Y0074369D01*
X0182434Y0074852D01*
X0183401Y0074852D01*
X0183885Y0074369D01*
X0183885Y0073401D02*
X0182917Y0073401D01*
X0183885Y0073401D02*
X0183885Y0072434D01*
D12*
X0175812Y0039871D02*
X0175812Y0039104D01*
X0175812Y0037569D02*
X0175812Y0034500D01*
X0176579Y0034500D02*
X0175044Y0034500D01*
X0171208Y0034500D02*
X0171208Y0037569D01*
X0171208Y0036035D02*
X0172742Y0037569D01*
X0173510Y0037569D01*
X0175044Y0037569D02*
X0175812Y0037569D01*
X0178114Y0036802D02*
X0178881Y0037569D01*
X0181183Y0037569D01*
X0180416Y0036035D02*
X0178881Y0036035D01*
X0178114Y0036802D01*
X0178114Y0034500D02*
X0180416Y0034500D01*
X0181183Y0035267D01*
X0180416Y0036035D01*
X0182718Y0036802D02*
X0183485Y0037569D01*
X0185020Y0037569D01*
X0185787Y0036802D01*
X0185787Y0034500D01*
X0182718Y0034500D02*
X0182718Y0039104D01*
X0184141Y0029871D02*
X0184141Y0028337D01*
X0183374Y0027569D01*
X0185676Y0027569D02*
X0187210Y0029104D01*
X0187210Y0024500D01*
X0185676Y0024500D02*
X0188745Y0024500D01*
X0190279Y0024500D02*
X0190279Y0025267D01*
X0193349Y0028337D01*
X0193349Y0029104D01*
X0190279Y0029104D01*
X0192693Y0034500D02*
X0194227Y0034500D01*
X0194995Y0035267D01*
X0196529Y0035267D02*
X0196529Y0034500D01*
X0197297Y0034500D01*
X0197297Y0035267D01*
X0196529Y0035267D01*
X0194995Y0038337D02*
X0194227Y0039104D01*
X0192693Y0039104D01*
X0191926Y0038337D01*
X0191926Y0035267D01*
X0192693Y0034500D01*
X0177235Y0028337D02*
X0177235Y0027569D01*
X0176468Y0026802D01*
X0177235Y0026035D01*
X0177235Y0025267D01*
X0176468Y0024500D01*
X0174933Y0024500D01*
X0174166Y0025267D01*
X0172631Y0025267D02*
X0171864Y0024500D01*
X0170329Y0024500D01*
X0169562Y0025267D01*
X0171096Y0026802D02*
X0171864Y0026802D01*
X0172631Y0026035D01*
X0172631Y0025267D01*
X0171864Y0026802D02*
X0172631Y0027569D01*
X0172631Y0028337D01*
X0171864Y0029104D01*
X0170329Y0029104D01*
X0169562Y0028337D01*
X0168027Y0026802D02*
X0164958Y0026802D01*
X0167260Y0029104D01*
X0167260Y0024500D01*
X0163423Y0024500D02*
X0160354Y0024500D01*
X0160354Y0029104D01*
X0163423Y0029104D01*
X0161889Y0026802D02*
X0160354Y0026802D01*
X0158819Y0029104D02*
X0158819Y0024500D01*
X0155750Y0024500D02*
X0155750Y0029104D01*
X0157285Y0027569D01*
X0158819Y0029104D01*
X0162000Y0034500D02*
X0162000Y0039104D01*
X0162000Y0036802D02*
X0165069Y0036802D01*
X0166604Y0035267D02*
X0167371Y0036035D01*
X0169673Y0036035D01*
X0169673Y0036802D02*
X0169673Y0034500D01*
X0167371Y0034500D01*
X0166604Y0035267D01*
X0165069Y0034500D02*
X0165069Y0039104D01*
X0167371Y0037569D02*
X0168906Y0037569D01*
X0169673Y0036802D01*
X0174933Y0029104D02*
X0176468Y0029104D01*
X0177235Y0028337D01*
X0176468Y0026802D02*
X0175700Y0026802D01*
X0174166Y0028337D02*
X0174933Y0029104D01*
X0038079Y0153457D02*
X0035009Y0153457D01*
X0036544Y0153457D02*
X0036544Y0158061D01*
X0035009Y0156526D01*
X0033475Y0158061D02*
X0031940Y0158061D01*
X0032707Y0158061D02*
X0032707Y0154224D01*
X0031940Y0153457D01*
X0031173Y0153457D01*
X0030406Y0154224D01*
X0052000Y0175267D02*
X0052767Y0174500D01*
X0054302Y0174500D01*
X0055069Y0175267D01*
X0055069Y0179104D01*
X0056604Y0178337D02*
X0056604Y0177569D01*
X0057371Y0176802D01*
X0058906Y0176802D01*
X0059673Y0176035D01*
X0059673Y0175267D01*
X0058906Y0174500D01*
X0057371Y0174500D01*
X0056604Y0175267D01*
X0058139Y0173733D02*
X0058139Y0179871D01*
X0058906Y0179104D02*
X0057371Y0179104D01*
X0056604Y0178337D01*
X0058906Y0179104D02*
X0059673Y0178337D01*
X0061208Y0178337D02*
X0061975Y0179104D01*
X0063510Y0179104D01*
X0064277Y0178337D01*
X0064277Y0177569D01*
X0061208Y0174500D01*
X0064277Y0174500D01*
X0067000Y0175267D02*
X0067767Y0174500D01*
X0069302Y0174500D01*
X0070069Y0175267D01*
X0070069Y0176035D01*
X0069302Y0176802D01*
X0067767Y0176802D01*
X0067000Y0177569D01*
X0067000Y0178337D01*
X0067767Y0179104D01*
X0069302Y0179104D01*
X0070069Y0178337D01*
X0071604Y0179104D02*
X0071604Y0174500D01*
X0074673Y0174500D01*
X0076208Y0174500D02*
X0077742Y0174500D01*
X0076975Y0174500D02*
X0076975Y0179104D01*
X0076208Y0179104D02*
X0077742Y0179104D01*
X0079277Y0179104D02*
X0081579Y0179104D01*
X0082346Y0178337D01*
X0082346Y0175267D01*
X0081579Y0174500D01*
X0079277Y0174500D01*
X0079277Y0179104D01*
X0083881Y0179104D02*
X0083881Y0174500D01*
X0086950Y0174500D01*
X0085416Y0176802D02*
X0083881Y0176802D01*
X0083881Y0179104D02*
X0086950Y0179104D01*
X0052000Y0179104D02*
X0052000Y0175267D01*
D13*
X0086800Y0166800D02*
X0091800Y0166800D01*
X0086800Y0166300D02*
X0086800Y0026800D01*
X0106800Y0026800D01*
X0106800Y0166800D01*
X0101800Y0166800D01*
X0101798Y0166660D01*
X0101792Y0166520D01*
X0101782Y0166380D01*
X0101769Y0166240D01*
X0101751Y0166101D01*
X0101729Y0165962D01*
X0101704Y0165825D01*
X0101675Y0165687D01*
X0101642Y0165551D01*
X0101605Y0165416D01*
X0101564Y0165282D01*
X0101519Y0165149D01*
X0101471Y0165017D01*
X0101419Y0164887D01*
X0101364Y0164758D01*
X0101305Y0164631D01*
X0101242Y0164505D01*
X0101176Y0164381D01*
X0101107Y0164260D01*
X0101034Y0164140D01*
X0100957Y0164022D01*
X0100878Y0163907D01*
X0100795Y0163793D01*
X0100709Y0163683D01*
X0100620Y0163574D01*
X0100528Y0163468D01*
X0100433Y0163365D01*
X0100336Y0163264D01*
X0100235Y0163167D01*
X0100132Y0163072D01*
X0100026Y0162980D01*
X0099917Y0162891D01*
X0099807Y0162805D01*
X0099693Y0162722D01*
X0099578Y0162643D01*
X0099460Y0162566D01*
X0099340Y0162493D01*
X0099219Y0162424D01*
X0099095Y0162358D01*
X0098969Y0162295D01*
X0098842Y0162236D01*
X0098713Y0162181D01*
X0098583Y0162129D01*
X0098451Y0162081D01*
X0098318Y0162036D01*
X0098184Y0161995D01*
X0098049Y0161958D01*
X0097913Y0161925D01*
X0097775Y0161896D01*
X0097638Y0161871D01*
X0097499Y0161849D01*
X0097360Y0161831D01*
X0097220Y0161818D01*
X0097080Y0161808D01*
X0096940Y0161802D01*
X0096800Y0161800D01*
X0096660Y0161802D01*
X0096520Y0161808D01*
X0096380Y0161818D01*
X0096240Y0161831D01*
X0096101Y0161849D01*
X0095962Y0161871D01*
X0095825Y0161896D01*
X0095687Y0161925D01*
X0095551Y0161958D01*
X0095416Y0161995D01*
X0095282Y0162036D01*
X0095149Y0162081D01*
X0095017Y0162129D01*
X0094887Y0162181D01*
X0094758Y0162236D01*
X0094631Y0162295D01*
X0094505Y0162358D01*
X0094381Y0162424D01*
X0094260Y0162493D01*
X0094140Y0162566D01*
X0094022Y0162643D01*
X0093907Y0162722D01*
X0093793Y0162805D01*
X0093683Y0162891D01*
X0093574Y0162980D01*
X0093468Y0163072D01*
X0093365Y0163167D01*
X0093264Y0163264D01*
X0093167Y0163365D01*
X0093072Y0163468D01*
X0092980Y0163574D01*
X0092891Y0163683D01*
X0092805Y0163793D01*
X0092722Y0163907D01*
X0092643Y0164022D01*
X0092566Y0164140D01*
X0092493Y0164260D01*
X0092424Y0164381D01*
X0092358Y0164505D01*
X0092295Y0164631D01*
X0092236Y0164758D01*
X0092181Y0164887D01*
X0092129Y0165017D01*
X0092081Y0165149D01*
X0092036Y0165282D01*
X0091995Y0165416D01*
X0091958Y0165551D01*
X0091925Y0165687D01*
X0091896Y0165825D01*
X0091871Y0165962D01*
X0091849Y0166101D01*
X0091831Y0166240D01*
X0091818Y0166380D01*
X0091808Y0166520D01*
X0091802Y0166660D01*
X0091800Y0166800D01*
X0117300Y0172800D02*
X0117300Y0180800D01*
X0117302Y0180860D01*
X0117307Y0180921D01*
X0117316Y0180980D01*
X0117329Y0181039D01*
X0117345Y0181098D01*
X0117365Y0181155D01*
X0117388Y0181210D01*
X0117415Y0181265D01*
X0117444Y0181317D01*
X0117477Y0181368D01*
X0117513Y0181417D01*
X0117551Y0181463D01*
X0117593Y0181507D01*
X0117637Y0181549D01*
X0117683Y0181587D01*
X0117732Y0181623D01*
X0117783Y0181656D01*
X0117835Y0181685D01*
X0117890Y0181712D01*
X0117945Y0181735D01*
X0118002Y0181755D01*
X0118061Y0181771D01*
X0118120Y0181784D01*
X0118179Y0181793D01*
X0118240Y0181798D01*
X0118300Y0181800D01*
X0135300Y0181800D01*
X0135360Y0181798D01*
X0135421Y0181793D01*
X0135480Y0181784D01*
X0135539Y0181771D01*
X0135598Y0181755D01*
X0135655Y0181735D01*
X0135710Y0181712D01*
X0135765Y0181685D01*
X0135817Y0181656D01*
X0135868Y0181623D01*
X0135917Y0181587D01*
X0135963Y0181549D01*
X0136007Y0181507D01*
X0136049Y0181463D01*
X0136087Y0181417D01*
X0136123Y0181368D01*
X0136156Y0181317D01*
X0136185Y0181265D01*
X0136212Y0181210D01*
X0136235Y0181155D01*
X0136255Y0181098D01*
X0136271Y0181039D01*
X0136284Y0180980D01*
X0136293Y0180921D01*
X0136298Y0180860D01*
X0136300Y0180800D01*
X0136300Y0172800D01*
X0136298Y0172740D01*
X0136293Y0172679D01*
X0136284Y0172620D01*
X0136271Y0172561D01*
X0136255Y0172502D01*
X0136235Y0172445D01*
X0136212Y0172390D01*
X0136185Y0172335D01*
X0136156Y0172283D01*
X0136123Y0172232D01*
X0136087Y0172183D01*
X0136049Y0172137D01*
X0136007Y0172093D01*
X0135963Y0172051D01*
X0135917Y0172013D01*
X0135868Y0171977D01*
X0135817Y0171944D01*
X0135765Y0171915D01*
X0135710Y0171888D01*
X0135655Y0171865D01*
X0135598Y0171845D01*
X0135539Y0171829D01*
X0135480Y0171816D01*
X0135421Y0171807D01*
X0135360Y0171802D01*
X0135300Y0171800D01*
X0118300Y0171800D01*
X0118240Y0171802D01*
X0118179Y0171807D01*
X0118120Y0171816D01*
X0118061Y0171829D01*
X0118002Y0171845D01*
X0117945Y0171865D01*
X0117890Y0171888D01*
X0117835Y0171915D01*
X0117783Y0171944D01*
X0117732Y0171977D01*
X0117683Y0172013D01*
X0117637Y0172051D01*
X0117593Y0172093D01*
X0117551Y0172137D01*
X0117513Y0172183D01*
X0117477Y0172232D01*
X0117444Y0172283D01*
X0117415Y0172335D01*
X0117388Y0172390D01*
X0117365Y0172445D01*
X0117345Y0172502D01*
X0117329Y0172561D01*
X0117316Y0172620D01*
X0117307Y0172679D01*
X0117302Y0172740D01*
X0117300Y0172800D01*
X0122800Y0166300D02*
X0130800Y0166300D01*
X0130860Y0166298D01*
X0130921Y0166293D01*
X0130980Y0166284D01*
X0131039Y0166271D01*
X0131098Y0166255D01*
X0131155Y0166235D01*
X0131210Y0166212D01*
X0131265Y0166185D01*
X0131317Y0166156D01*
X0131368Y0166123D01*
X0131417Y0166087D01*
X0131463Y0166049D01*
X0131507Y0166007D01*
X0131549Y0165963D01*
X0131587Y0165917D01*
X0131623Y0165868D01*
X0131656Y0165817D01*
X0131685Y0165765D01*
X0131712Y0165710D01*
X0131735Y0165655D01*
X0131755Y0165598D01*
X0131771Y0165539D01*
X0131784Y0165480D01*
X0131793Y0165421D01*
X0131798Y0165360D01*
X0131800Y0165300D01*
X0131800Y0148300D01*
X0131798Y0148240D01*
X0131793Y0148179D01*
X0131784Y0148120D01*
X0131771Y0148061D01*
X0131755Y0148002D01*
X0131735Y0147945D01*
X0131712Y0147890D01*
X0131685Y0147835D01*
X0131656Y0147783D01*
X0131623Y0147732D01*
X0131587Y0147683D01*
X0131549Y0147637D01*
X0131507Y0147593D01*
X0131463Y0147551D01*
X0131417Y0147513D01*
X0131368Y0147477D01*
X0131317Y0147444D01*
X0131265Y0147415D01*
X0131210Y0147388D01*
X0131155Y0147365D01*
X0131098Y0147345D01*
X0131039Y0147329D01*
X0130980Y0147316D01*
X0130921Y0147307D01*
X0130860Y0147302D01*
X0130800Y0147300D01*
X0122800Y0147300D01*
X0122740Y0147302D01*
X0122679Y0147307D01*
X0122620Y0147316D01*
X0122561Y0147329D01*
X0122502Y0147345D01*
X0122445Y0147365D01*
X0122390Y0147388D01*
X0122335Y0147415D01*
X0122283Y0147444D01*
X0122232Y0147477D01*
X0122183Y0147513D01*
X0122137Y0147551D01*
X0122093Y0147593D01*
X0122051Y0147637D01*
X0122013Y0147683D01*
X0121977Y0147732D01*
X0121944Y0147783D01*
X0121915Y0147835D01*
X0121888Y0147890D01*
X0121865Y0147945D01*
X0121845Y0148002D01*
X0121829Y0148061D01*
X0121816Y0148120D01*
X0121807Y0148179D01*
X0121802Y0148240D01*
X0121800Y0148300D01*
X0121800Y0165300D01*
X0121802Y0165360D01*
X0121807Y0165421D01*
X0121816Y0165480D01*
X0121829Y0165539D01*
X0121845Y0165598D01*
X0121865Y0165655D01*
X0121888Y0165710D01*
X0121915Y0165765D01*
X0121944Y0165817D01*
X0121977Y0165868D01*
X0122013Y0165917D01*
X0122051Y0165963D01*
X0122093Y0166007D01*
X0122137Y0166049D01*
X0122183Y0166087D01*
X0122232Y0166123D01*
X0122283Y0166156D01*
X0122335Y0166185D01*
X0122390Y0166212D01*
X0122445Y0166235D01*
X0122502Y0166255D01*
X0122561Y0166271D01*
X0122620Y0166284D01*
X0122679Y0166293D01*
X0122740Y0166298D01*
X0122800Y0166300D01*
X0126800Y0158300D02*
X0126800Y0157800D01*
X0126800Y0155800D02*
X0126800Y0155300D01*
X0125800Y0176800D02*
X0125300Y0176800D01*
X0127800Y0176800D02*
X0128300Y0176800D01*
X0135300Y0186800D02*
X0118300Y0186800D01*
X0118240Y0186802D01*
X0118179Y0186807D01*
X0118120Y0186816D01*
X0118061Y0186829D01*
X0118002Y0186845D01*
X0117945Y0186865D01*
X0117890Y0186888D01*
X0117835Y0186915D01*
X0117783Y0186944D01*
X0117732Y0186977D01*
X0117683Y0187013D01*
X0117637Y0187051D01*
X0117593Y0187093D01*
X0117551Y0187137D01*
X0117513Y0187183D01*
X0117477Y0187232D01*
X0117444Y0187283D01*
X0117415Y0187335D01*
X0117388Y0187390D01*
X0117365Y0187445D01*
X0117345Y0187502D01*
X0117329Y0187561D01*
X0117316Y0187620D01*
X0117307Y0187679D01*
X0117302Y0187740D01*
X0117300Y0187800D01*
X0117300Y0195800D01*
X0117302Y0195860D01*
X0117307Y0195921D01*
X0117316Y0195980D01*
X0117329Y0196039D01*
X0117345Y0196098D01*
X0117365Y0196155D01*
X0117388Y0196210D01*
X0117415Y0196265D01*
X0117444Y0196317D01*
X0117477Y0196368D01*
X0117513Y0196417D01*
X0117551Y0196463D01*
X0117593Y0196507D01*
X0117637Y0196549D01*
X0117683Y0196587D01*
X0117732Y0196623D01*
X0117783Y0196656D01*
X0117835Y0196685D01*
X0117890Y0196712D01*
X0117945Y0196735D01*
X0118002Y0196755D01*
X0118061Y0196771D01*
X0118120Y0196784D01*
X0118179Y0196793D01*
X0118240Y0196798D01*
X0118300Y0196800D01*
X0135300Y0196800D01*
X0135360Y0196798D01*
X0135421Y0196793D01*
X0135480Y0196784D01*
X0135539Y0196771D01*
X0135598Y0196755D01*
X0135655Y0196735D01*
X0135710Y0196712D01*
X0135765Y0196685D01*
X0135817Y0196656D01*
X0135868Y0196623D01*
X0135917Y0196587D01*
X0135963Y0196549D01*
X0136007Y0196507D01*
X0136049Y0196463D01*
X0136087Y0196417D01*
X0136123Y0196368D01*
X0136156Y0196317D01*
X0136185Y0196265D01*
X0136212Y0196210D01*
X0136235Y0196155D01*
X0136255Y0196098D01*
X0136271Y0196039D01*
X0136284Y0195980D01*
X0136293Y0195921D01*
X0136298Y0195860D01*
X0136300Y0195800D01*
X0136300Y0187800D01*
X0136298Y0187740D01*
X0136293Y0187679D01*
X0136284Y0187620D01*
X0136271Y0187561D01*
X0136255Y0187502D01*
X0136235Y0187445D01*
X0136212Y0187390D01*
X0136185Y0187335D01*
X0136156Y0187283D01*
X0136123Y0187232D01*
X0136087Y0187183D01*
X0136049Y0187137D01*
X0136007Y0187093D01*
X0135963Y0187051D01*
X0135917Y0187013D01*
X0135868Y0186977D01*
X0135817Y0186944D01*
X0135765Y0186915D01*
X0135710Y0186888D01*
X0135655Y0186865D01*
X0135598Y0186845D01*
X0135539Y0186829D01*
X0135480Y0186816D01*
X0135421Y0186807D01*
X0135360Y0186802D01*
X0135300Y0186800D01*
X0128300Y0191800D02*
X0127800Y0191800D01*
X0125800Y0191800D02*
X0125300Y0191800D01*
X0147300Y0194800D02*
X0147300Y0170300D01*
X0150300Y0167300D01*
X0163300Y0167300D01*
X0166300Y0170300D01*
X0166300Y0194800D01*
X0166298Y0194876D01*
X0166292Y0194952D01*
X0166283Y0195027D01*
X0166269Y0195102D01*
X0166252Y0195176D01*
X0166231Y0195249D01*
X0166207Y0195321D01*
X0166178Y0195392D01*
X0166147Y0195461D01*
X0166112Y0195528D01*
X0166073Y0195593D01*
X0166031Y0195657D01*
X0165986Y0195718D01*
X0165938Y0195777D01*
X0165887Y0195833D01*
X0165833Y0195887D01*
X0165777Y0195938D01*
X0165718Y0195986D01*
X0165657Y0196031D01*
X0165593Y0196073D01*
X0165528Y0196112D01*
X0165461Y0196147D01*
X0165392Y0196178D01*
X0165321Y0196207D01*
X0165249Y0196231D01*
X0165176Y0196252D01*
X0165102Y0196269D01*
X0165027Y0196283D01*
X0164952Y0196292D01*
X0164876Y0196298D01*
X0164800Y0196300D01*
X0148800Y0196300D01*
X0148724Y0196298D01*
X0148648Y0196292D01*
X0148573Y0196283D01*
X0148498Y0196269D01*
X0148424Y0196252D01*
X0148351Y0196231D01*
X0148279Y0196207D01*
X0148208Y0196178D01*
X0148139Y0196147D01*
X0148072Y0196112D01*
X0148007Y0196073D01*
X0147943Y0196031D01*
X0147882Y0195986D01*
X0147823Y0195938D01*
X0147767Y0195887D01*
X0147713Y0195833D01*
X0147662Y0195777D01*
X0147614Y0195718D01*
X0147569Y0195657D01*
X0147527Y0195593D01*
X0147488Y0195528D01*
X0147453Y0195461D01*
X0147422Y0195392D01*
X0147393Y0195321D01*
X0147369Y0195249D01*
X0147348Y0195176D01*
X0147331Y0195102D01*
X0147317Y0195027D01*
X0147308Y0194952D01*
X0147302Y0194876D01*
X0147300Y0194800D01*
X0156800Y0187800D02*
X0156800Y0184300D01*
X0152000Y0181300D02*
X0152000Y0179300D01*
X0156800Y0179300D01*
X0161600Y0179300D01*
X0161600Y0181300D01*
X0152000Y0181300D01*
X0156800Y0179300D02*
X0156800Y0175800D01*
X0152700Y0174800D02*
X0150200Y0174800D01*
X0151400Y0176100D02*
X0151400Y0173500D01*
X0155300Y0161300D02*
X0156800Y0161300D01*
X0157300Y0160800D01*
X0176300Y0160800D01*
X0176800Y0161300D01*
X0178300Y0161300D01*
X0178360Y0161298D01*
X0178421Y0161293D01*
X0178480Y0161284D01*
X0178539Y0161271D01*
X0178598Y0161255D01*
X0178655Y0161235D01*
X0178710Y0161212D01*
X0178765Y0161185D01*
X0178817Y0161156D01*
X0178868Y0161123D01*
X0178917Y0161087D01*
X0178963Y0161049D01*
X0179007Y0161007D01*
X0179049Y0160963D01*
X0179087Y0160917D01*
X0179123Y0160868D01*
X0179156Y0160817D01*
X0179185Y0160765D01*
X0179212Y0160710D01*
X0179235Y0160655D01*
X0179255Y0160598D01*
X0179271Y0160539D01*
X0179284Y0160480D01*
X0179293Y0160421D01*
X0179298Y0160360D01*
X0179300Y0160300D01*
X0179300Y0153300D01*
X0179298Y0153240D01*
X0179293Y0153179D01*
X0179284Y0153120D01*
X0179271Y0153061D01*
X0179255Y0153002D01*
X0179235Y0152945D01*
X0179212Y0152890D01*
X0179185Y0152835D01*
X0179156Y0152783D01*
X0179123Y0152732D01*
X0179087Y0152683D01*
X0179049Y0152637D01*
X0179007Y0152593D01*
X0178963Y0152551D01*
X0178917Y0152513D01*
X0178868Y0152477D01*
X0178817Y0152444D01*
X0178765Y0152415D01*
X0178710Y0152388D01*
X0178655Y0152365D01*
X0178598Y0152345D01*
X0178539Y0152329D01*
X0178480Y0152316D01*
X0178421Y0152307D01*
X0178360Y0152302D01*
X0178300Y0152300D01*
X0176800Y0152300D01*
X0176300Y0152800D01*
X0157300Y0152800D01*
X0156800Y0152300D01*
X0155300Y0152300D01*
X0155240Y0152302D01*
X0155179Y0152307D01*
X0155120Y0152316D01*
X0155061Y0152329D01*
X0155002Y0152345D01*
X0154945Y0152365D01*
X0154890Y0152388D01*
X0154835Y0152415D01*
X0154783Y0152444D01*
X0154732Y0152477D01*
X0154683Y0152513D01*
X0154637Y0152551D01*
X0154593Y0152593D01*
X0154551Y0152637D01*
X0154513Y0152683D01*
X0154477Y0152732D01*
X0154444Y0152783D01*
X0154415Y0152835D01*
X0154388Y0152890D01*
X0154365Y0152945D01*
X0154345Y0153002D01*
X0154329Y0153061D01*
X0154316Y0153120D01*
X0154307Y0153179D01*
X0154302Y0153240D01*
X0154300Y0153300D01*
X0154300Y0160300D01*
X0154302Y0160360D01*
X0154307Y0160421D01*
X0154316Y0160480D01*
X0154329Y0160539D01*
X0154345Y0160598D01*
X0154365Y0160655D01*
X0154388Y0160710D01*
X0154415Y0160765D01*
X0154444Y0160817D01*
X0154477Y0160868D01*
X0154513Y0160917D01*
X0154551Y0160963D01*
X0154593Y0161007D01*
X0154637Y0161049D01*
X0154683Y0161087D01*
X0154732Y0161123D01*
X0154783Y0161156D01*
X0154835Y0161185D01*
X0154890Y0161212D01*
X0154945Y0161235D01*
X0155002Y0161255D01*
X0155061Y0161271D01*
X0155120Y0161284D01*
X0155179Y0161293D01*
X0155240Y0161298D01*
X0155300Y0161300D01*
X0186800Y0192800D02*
X0186954Y0192798D01*
X0187108Y0192792D01*
X0187262Y0192782D01*
X0187416Y0192768D01*
X0187569Y0192751D01*
X0187721Y0192729D01*
X0187873Y0192703D01*
X0188025Y0192674D01*
X0188175Y0192640D01*
X0188325Y0192603D01*
X0188473Y0192562D01*
X0188621Y0192517D01*
X0188767Y0192468D01*
X0188912Y0192416D01*
X0189055Y0192360D01*
X0189198Y0192300D01*
X0189338Y0192237D01*
X0189477Y0192170D01*
X0189614Y0192099D01*
X0189749Y0192025D01*
X0189882Y0191948D01*
X0190014Y0191867D01*
X0190143Y0191783D01*
X0190270Y0191695D01*
X0190394Y0191604D01*
X0190516Y0191511D01*
X0190636Y0191413D01*
X0190753Y0191313D01*
X0190868Y0191210D01*
X0190980Y0191104D01*
X0191089Y0190996D01*
X0191195Y0190884D01*
X0191299Y0190770D01*
X0191399Y0190653D01*
X0191497Y0190534D01*
X0191591Y0190412D01*
X0191682Y0190287D01*
X0186800Y0180800D02*
X0186648Y0180802D01*
X0186497Y0180808D01*
X0186346Y0180817D01*
X0186194Y0180831D01*
X0186044Y0180848D01*
X0185894Y0180869D01*
X0185744Y0180894D01*
X0185595Y0180922D01*
X0185447Y0180955D01*
X0185300Y0180991D01*
X0185153Y0181030D01*
X0185008Y0181074D01*
X0184864Y0181121D01*
X0184721Y0181172D01*
X0184580Y0181226D01*
X0184439Y0181284D01*
X0184301Y0181345D01*
X0184164Y0181410D01*
X0184028Y0181479D01*
X0183895Y0181550D01*
X0183763Y0181625D01*
X0183633Y0181704D01*
X0183506Y0181785D01*
X0183380Y0181870D01*
X0183256Y0181958D01*
X0183135Y0182049D01*
X0183016Y0182143D01*
X0182900Y0182241D01*
X0182786Y0182341D01*
X0182674Y0182443D01*
X0182566Y0182549D01*
X0182460Y0182657D01*
X0182356Y0182768D01*
X0182256Y0182882D01*
X0182158Y0182998D01*
X0182064Y0183117D01*
X0186800Y0180800D02*
X0186952Y0180802D01*
X0187103Y0180808D01*
X0187254Y0180817D01*
X0187406Y0180831D01*
X0187556Y0180848D01*
X0187706Y0180869D01*
X0187856Y0180894D01*
X0188005Y0180922D01*
X0188153Y0180955D01*
X0188300Y0180991D01*
X0188447Y0181030D01*
X0188592Y0181074D01*
X0188736Y0181121D01*
X0188879Y0181172D01*
X0189020Y0181226D01*
X0189161Y0181284D01*
X0189299Y0181345D01*
X0189436Y0181410D01*
X0189572Y0181479D01*
X0189705Y0181550D01*
X0189837Y0181625D01*
X0189967Y0181704D01*
X0190094Y0181785D01*
X0190220Y0181870D01*
X0190344Y0181958D01*
X0190465Y0182049D01*
X0190584Y0182143D01*
X0190700Y0182241D01*
X0190814Y0182341D01*
X0190926Y0182443D01*
X0191034Y0182549D01*
X0191140Y0182657D01*
X0191244Y0182768D01*
X0191344Y0182882D01*
X0191442Y0182998D01*
X0191536Y0183117D01*
X0186800Y0192800D02*
X0186650Y0192798D01*
X0186499Y0192792D01*
X0186349Y0192783D01*
X0186200Y0192770D01*
X0186050Y0192753D01*
X0185901Y0192732D01*
X0185753Y0192708D01*
X0185605Y0192680D01*
X0185458Y0192648D01*
X0185312Y0192613D01*
X0185167Y0192573D01*
X0185023Y0192531D01*
X0184880Y0192484D01*
X0184738Y0192434D01*
X0184597Y0192381D01*
X0184458Y0192324D01*
X0184320Y0192264D01*
X0184184Y0192200D01*
X0184050Y0192133D01*
X0183917Y0192062D01*
X0183786Y0191988D01*
X0183657Y0191911D01*
X0183530Y0191830D01*
X0183405Y0191747D01*
X0183282Y0191660D01*
X0183161Y0191571D01*
X0183043Y0191478D01*
X0182927Y0191382D01*
X0182813Y0191284D01*
X0182702Y0191183D01*
X0182593Y0191078D01*
X0182488Y0190972D01*
X0182384Y0190862D01*
X0182284Y0190750D01*
X0182186Y0190636D01*
X0182092Y0190519D01*
X0182000Y0190400D01*
X0154800Y0096300D02*
X0130300Y0096300D01*
X0127300Y0093300D01*
X0127300Y0080300D01*
X0130300Y0077300D01*
X0154800Y0077300D01*
X0154876Y0077302D01*
X0154952Y0077308D01*
X0155027Y0077317D01*
X0155102Y0077331D01*
X0155176Y0077348D01*
X0155249Y0077369D01*
X0155321Y0077393D01*
X0155392Y0077422D01*
X0155461Y0077453D01*
X0155528Y0077488D01*
X0155593Y0077527D01*
X0155657Y0077569D01*
X0155718Y0077614D01*
X0155777Y0077662D01*
X0155833Y0077713D01*
X0155887Y0077767D01*
X0155938Y0077823D01*
X0155986Y0077882D01*
X0156031Y0077943D01*
X0156073Y0078007D01*
X0156112Y0078072D01*
X0156147Y0078139D01*
X0156178Y0078208D01*
X0156207Y0078279D01*
X0156231Y0078351D01*
X0156252Y0078424D01*
X0156269Y0078498D01*
X0156283Y0078573D01*
X0156292Y0078648D01*
X0156298Y0078724D01*
X0156300Y0078800D01*
X0156300Y0094800D01*
X0156298Y0094876D01*
X0156292Y0094952D01*
X0156283Y0095027D01*
X0156269Y0095102D01*
X0156252Y0095176D01*
X0156231Y0095249D01*
X0156207Y0095321D01*
X0156178Y0095392D01*
X0156147Y0095461D01*
X0156112Y0095528D01*
X0156073Y0095593D01*
X0156031Y0095657D01*
X0155986Y0095718D01*
X0155938Y0095777D01*
X0155887Y0095833D01*
X0155833Y0095887D01*
X0155777Y0095938D01*
X0155718Y0095986D01*
X0155657Y0096031D01*
X0155593Y0096073D01*
X0155528Y0096112D01*
X0155461Y0096147D01*
X0155392Y0096178D01*
X0155321Y0096207D01*
X0155249Y0096231D01*
X0155176Y0096252D01*
X0155102Y0096269D01*
X0155027Y0096283D01*
X0154952Y0096292D01*
X0154876Y0096298D01*
X0154800Y0096300D01*
X0147800Y0086800D02*
X0144300Y0086800D01*
X0139300Y0086800D02*
X0139300Y0082000D01*
X0141300Y0082000D01*
X0141300Y0091600D01*
X0139300Y0091600D01*
X0139300Y0086800D01*
X0135800Y0086800D01*
X0134800Y0090900D02*
X0134800Y0093400D01*
X0136100Y0092200D02*
X0133500Y0092200D01*
X0071300Y0040800D02*
X0071300Y0032800D01*
X0071298Y0032740D01*
X0071293Y0032679D01*
X0071284Y0032620D01*
X0071271Y0032561D01*
X0071255Y0032502D01*
X0071235Y0032445D01*
X0071212Y0032390D01*
X0071185Y0032335D01*
X0071156Y0032283D01*
X0071123Y0032232D01*
X0071087Y0032183D01*
X0071049Y0032137D01*
X0071007Y0032093D01*
X0070963Y0032051D01*
X0070917Y0032013D01*
X0070868Y0031977D01*
X0070817Y0031944D01*
X0070765Y0031915D01*
X0070710Y0031888D01*
X0070655Y0031865D01*
X0070598Y0031845D01*
X0070539Y0031829D01*
X0070480Y0031816D01*
X0070421Y0031807D01*
X0070360Y0031802D01*
X0070300Y0031800D01*
X0053300Y0031800D01*
X0053240Y0031802D01*
X0053179Y0031807D01*
X0053120Y0031816D01*
X0053061Y0031829D01*
X0053002Y0031845D01*
X0052945Y0031865D01*
X0052890Y0031888D01*
X0052835Y0031915D01*
X0052783Y0031944D01*
X0052732Y0031977D01*
X0052683Y0032013D01*
X0052637Y0032051D01*
X0052593Y0032093D01*
X0052551Y0032137D01*
X0052513Y0032183D01*
X0052477Y0032232D01*
X0052444Y0032283D01*
X0052415Y0032335D01*
X0052388Y0032390D01*
X0052365Y0032445D01*
X0052345Y0032502D01*
X0052329Y0032561D01*
X0052316Y0032620D01*
X0052307Y0032679D01*
X0052302Y0032740D01*
X0052300Y0032800D01*
X0052300Y0040800D01*
X0052302Y0040860D01*
X0052307Y0040921D01*
X0052316Y0040980D01*
X0052329Y0041039D01*
X0052345Y0041098D01*
X0052365Y0041155D01*
X0052388Y0041210D01*
X0052415Y0041265D01*
X0052444Y0041317D01*
X0052477Y0041368D01*
X0052513Y0041417D01*
X0052551Y0041463D01*
X0052593Y0041507D01*
X0052637Y0041549D01*
X0052683Y0041587D01*
X0052732Y0041623D01*
X0052783Y0041656D01*
X0052835Y0041685D01*
X0052890Y0041712D01*
X0052945Y0041735D01*
X0053002Y0041755D01*
X0053061Y0041771D01*
X0053120Y0041784D01*
X0053179Y0041793D01*
X0053240Y0041798D01*
X0053300Y0041800D01*
X0070300Y0041800D01*
X0070360Y0041798D01*
X0070421Y0041793D01*
X0070480Y0041784D01*
X0070539Y0041771D01*
X0070598Y0041755D01*
X0070655Y0041735D01*
X0070710Y0041712D01*
X0070765Y0041685D01*
X0070817Y0041656D01*
X0070868Y0041623D01*
X0070917Y0041587D01*
X0070963Y0041549D01*
X0071007Y0041507D01*
X0071049Y0041463D01*
X0071087Y0041417D01*
X0071123Y0041368D01*
X0071156Y0041317D01*
X0071185Y0041265D01*
X0071212Y0041210D01*
X0071235Y0041155D01*
X0071255Y0041098D01*
X0071271Y0041039D01*
X0071284Y0040980D01*
X0071293Y0040921D01*
X0071298Y0040860D01*
X0071300Y0040800D01*
X0063300Y0036800D02*
X0062800Y0036800D01*
X0060800Y0036800D02*
X0060300Y0036800D01*
X0046300Y0040300D02*
X0046300Y0041800D01*
X0045800Y0042300D01*
X0045800Y0061300D01*
X0046300Y0061800D01*
X0046300Y0063300D01*
X0046298Y0063360D01*
X0046293Y0063421D01*
X0046284Y0063480D01*
X0046271Y0063539D01*
X0046255Y0063598D01*
X0046235Y0063655D01*
X0046212Y0063710D01*
X0046185Y0063765D01*
X0046156Y0063817D01*
X0046123Y0063868D01*
X0046087Y0063917D01*
X0046049Y0063963D01*
X0046007Y0064007D01*
X0045963Y0064049D01*
X0045917Y0064087D01*
X0045868Y0064123D01*
X0045817Y0064156D01*
X0045765Y0064185D01*
X0045710Y0064212D01*
X0045655Y0064235D01*
X0045598Y0064255D01*
X0045539Y0064271D01*
X0045480Y0064284D01*
X0045421Y0064293D01*
X0045360Y0064298D01*
X0045300Y0064300D01*
X0038300Y0064300D01*
X0038240Y0064298D01*
X0038179Y0064293D01*
X0038120Y0064284D01*
X0038061Y0064271D01*
X0038002Y0064255D01*
X0037945Y0064235D01*
X0037890Y0064212D01*
X0037835Y0064185D01*
X0037783Y0064156D01*
X0037732Y0064123D01*
X0037683Y0064087D01*
X0037637Y0064049D01*
X0037593Y0064007D01*
X0037551Y0063963D01*
X0037513Y0063917D01*
X0037477Y0063868D01*
X0037444Y0063817D01*
X0037415Y0063765D01*
X0037388Y0063710D01*
X0037365Y0063655D01*
X0037345Y0063598D01*
X0037329Y0063539D01*
X0037316Y0063480D01*
X0037307Y0063421D01*
X0037302Y0063360D01*
X0037300Y0063300D01*
X0037300Y0061800D01*
X0037800Y0061300D01*
X0037800Y0042300D01*
X0037300Y0041800D01*
X0037300Y0040300D01*
X0037302Y0040240D01*
X0037307Y0040179D01*
X0037316Y0040120D01*
X0037329Y0040061D01*
X0037345Y0040002D01*
X0037365Y0039945D01*
X0037388Y0039890D01*
X0037415Y0039835D01*
X0037444Y0039783D01*
X0037477Y0039732D01*
X0037513Y0039683D01*
X0037551Y0039637D01*
X0037593Y0039593D01*
X0037637Y0039551D01*
X0037683Y0039513D01*
X0037732Y0039477D01*
X0037783Y0039444D01*
X0037835Y0039415D01*
X0037890Y0039388D01*
X0037945Y0039365D01*
X0038002Y0039345D01*
X0038061Y0039329D01*
X0038120Y0039316D01*
X0038179Y0039307D01*
X0038240Y0039302D01*
X0038300Y0039300D01*
X0045300Y0039300D01*
X0045360Y0039302D01*
X0045421Y0039307D01*
X0045480Y0039316D01*
X0045539Y0039329D01*
X0045598Y0039345D01*
X0045655Y0039365D01*
X0045710Y0039388D01*
X0045765Y0039415D01*
X0045817Y0039444D01*
X0045868Y0039477D01*
X0045917Y0039513D01*
X0045963Y0039551D01*
X0046007Y0039593D01*
X0046049Y0039637D01*
X0046087Y0039683D01*
X0046123Y0039732D01*
X0046156Y0039783D01*
X0046185Y0039835D01*
X0046212Y0039890D01*
X0046235Y0039945D01*
X0046255Y0040002D01*
X0046271Y0040061D01*
X0046284Y0040120D01*
X0046293Y0040179D01*
X0046298Y0040240D01*
X0046300Y0040300D01*
X0031300Y0040300D02*
X0031300Y0041800D01*
X0030800Y0042300D01*
X0030800Y0061300D01*
X0031300Y0061800D01*
X0031300Y0063300D01*
X0031298Y0063360D01*
X0031293Y0063421D01*
X0031284Y0063480D01*
X0031271Y0063539D01*
X0031255Y0063598D01*
X0031235Y0063655D01*
X0031212Y0063710D01*
X0031185Y0063765D01*
X0031156Y0063817D01*
X0031123Y0063868D01*
X0031087Y0063917D01*
X0031049Y0063963D01*
X0031007Y0064007D01*
X0030963Y0064049D01*
X0030917Y0064087D01*
X0030868Y0064123D01*
X0030817Y0064156D01*
X0030765Y0064185D01*
X0030710Y0064212D01*
X0030655Y0064235D01*
X0030598Y0064255D01*
X0030539Y0064271D01*
X0030480Y0064284D01*
X0030421Y0064293D01*
X0030360Y0064298D01*
X0030300Y0064300D01*
X0023300Y0064300D01*
X0023240Y0064298D01*
X0023179Y0064293D01*
X0023120Y0064284D01*
X0023061Y0064271D01*
X0023002Y0064255D01*
X0022945Y0064235D01*
X0022890Y0064212D01*
X0022835Y0064185D01*
X0022783Y0064156D01*
X0022732Y0064123D01*
X0022683Y0064087D01*
X0022637Y0064049D01*
X0022593Y0064007D01*
X0022551Y0063963D01*
X0022513Y0063917D01*
X0022477Y0063868D01*
X0022444Y0063817D01*
X0022415Y0063765D01*
X0022388Y0063710D01*
X0022365Y0063655D01*
X0022345Y0063598D01*
X0022329Y0063539D01*
X0022316Y0063480D01*
X0022307Y0063421D01*
X0022302Y0063360D01*
X0022300Y0063300D01*
X0022300Y0061800D01*
X0022800Y0061300D01*
X0022800Y0042300D01*
X0022300Y0041800D01*
X0022300Y0040300D01*
X0022302Y0040240D01*
X0022307Y0040179D01*
X0022316Y0040120D01*
X0022329Y0040061D01*
X0022345Y0040002D01*
X0022365Y0039945D01*
X0022388Y0039890D01*
X0022415Y0039835D01*
X0022444Y0039783D01*
X0022477Y0039732D01*
X0022513Y0039683D01*
X0022551Y0039637D01*
X0022593Y0039593D01*
X0022637Y0039551D01*
X0022683Y0039513D01*
X0022732Y0039477D01*
X0022783Y0039444D01*
X0022835Y0039415D01*
X0022890Y0039388D01*
X0022945Y0039365D01*
X0023002Y0039345D01*
X0023061Y0039329D01*
X0023120Y0039316D01*
X0023179Y0039307D01*
X0023240Y0039302D01*
X0023300Y0039300D01*
X0030300Y0039300D01*
X0030360Y0039302D01*
X0030421Y0039307D01*
X0030480Y0039316D01*
X0030539Y0039329D01*
X0030598Y0039345D01*
X0030655Y0039365D01*
X0030710Y0039388D01*
X0030765Y0039415D01*
X0030817Y0039444D01*
X0030868Y0039477D01*
X0030917Y0039513D01*
X0030963Y0039551D01*
X0031007Y0039593D01*
X0031049Y0039637D01*
X0031087Y0039683D01*
X0031123Y0039732D01*
X0031156Y0039783D01*
X0031185Y0039835D01*
X0031212Y0039890D01*
X0031235Y0039945D01*
X0031255Y0040002D01*
X0031271Y0040061D01*
X0031284Y0040120D01*
X0031293Y0040179D01*
X0031298Y0040240D01*
X0031300Y0040300D01*
X0048350Y0009202D02*
X0049651Y0009202D01*
X0050085Y0008769D01*
X0050085Y0007901D01*
X0049651Y0007467D01*
X0048350Y0007467D01*
X0048350Y0006600D02*
X0048350Y0009202D01*
X0049217Y0007467D02*
X0050085Y0006600D01*
X0051297Y0006600D02*
X0051297Y0009202D01*
X0053031Y0009202D01*
X0054243Y0008769D02*
X0054243Y0008335D01*
X0054677Y0007901D01*
X0055544Y0007901D01*
X0055978Y0007467D01*
X0055978Y0007034D01*
X0055544Y0006600D01*
X0054677Y0006600D01*
X0054243Y0007034D01*
X0053031Y0006600D02*
X0051297Y0006600D01*
X0051297Y0007901D02*
X0052164Y0007901D01*
X0054243Y0008769D02*
X0054677Y0009202D01*
X0055544Y0009202D01*
X0055978Y0008769D01*
X0057190Y0009202D02*
X0057190Y0006600D01*
X0058924Y0006600D01*
X0058057Y0007901D02*
X0057190Y0007901D01*
X0057190Y0009202D02*
X0058924Y0009202D01*
X0060136Y0009202D02*
X0061871Y0009202D01*
X0061003Y0009202D02*
X0061003Y0006600D01*
X0093350Y0007034D02*
X0093784Y0006600D01*
X0094651Y0006600D01*
X0095085Y0007034D01*
X0095085Y0009202D01*
X0096297Y0008769D02*
X0096297Y0008335D01*
X0096730Y0007901D01*
X0097598Y0007901D01*
X0098031Y0007467D01*
X0098031Y0007034D01*
X0097598Y0006600D01*
X0096730Y0006600D01*
X0096297Y0007034D01*
X0096297Y0008769D02*
X0096730Y0009202D01*
X0097598Y0009202D01*
X0098031Y0008769D01*
X0099243Y0009202D02*
X0099243Y0006600D01*
X0100978Y0006600D01*
X0102190Y0006600D02*
X0102190Y0009202D01*
X0103491Y0009202D01*
X0103924Y0008769D01*
X0103924Y0007901D01*
X0103491Y0007467D01*
X0102190Y0007467D01*
X0103057Y0007467D02*
X0103924Y0006600D01*
X0100978Y0009202D02*
X0099243Y0009202D01*
X0099243Y0007901D02*
X0100110Y0007901D01*
X0093350Y0007034D02*
X0093350Y0009202D01*
X0116800Y0017800D02*
X0116954Y0017798D01*
X0117108Y0017792D01*
X0117262Y0017782D01*
X0117416Y0017768D01*
X0117569Y0017751D01*
X0117721Y0017729D01*
X0117873Y0017703D01*
X0118025Y0017674D01*
X0118175Y0017640D01*
X0118325Y0017603D01*
X0118473Y0017562D01*
X0118621Y0017517D01*
X0118767Y0017468D01*
X0118912Y0017416D01*
X0119055Y0017360D01*
X0119198Y0017300D01*
X0119338Y0017237D01*
X0119477Y0017170D01*
X0119614Y0017099D01*
X0119749Y0017025D01*
X0119882Y0016948D01*
X0120014Y0016867D01*
X0120143Y0016783D01*
X0120270Y0016695D01*
X0120394Y0016604D01*
X0120516Y0016511D01*
X0120636Y0016413D01*
X0120753Y0016313D01*
X0120868Y0016210D01*
X0120980Y0016104D01*
X0121089Y0015996D01*
X0121195Y0015884D01*
X0121299Y0015770D01*
X0121399Y0015653D01*
X0121497Y0015534D01*
X0121591Y0015412D01*
X0121682Y0015287D01*
X0116800Y0005800D02*
X0116648Y0005802D01*
X0116497Y0005808D01*
X0116346Y0005817D01*
X0116194Y0005831D01*
X0116044Y0005848D01*
X0115894Y0005869D01*
X0115744Y0005894D01*
X0115595Y0005922D01*
X0115447Y0005955D01*
X0115300Y0005991D01*
X0115153Y0006030D01*
X0115008Y0006074D01*
X0114864Y0006121D01*
X0114721Y0006172D01*
X0114580Y0006226D01*
X0114439Y0006284D01*
X0114301Y0006345D01*
X0114164Y0006410D01*
X0114028Y0006479D01*
X0113895Y0006550D01*
X0113763Y0006625D01*
X0113633Y0006704D01*
X0113506Y0006785D01*
X0113380Y0006870D01*
X0113256Y0006958D01*
X0113135Y0007049D01*
X0113016Y0007143D01*
X0112900Y0007241D01*
X0112786Y0007341D01*
X0112674Y0007443D01*
X0112566Y0007549D01*
X0112460Y0007657D01*
X0112356Y0007768D01*
X0112256Y0007882D01*
X0112158Y0007998D01*
X0112064Y0008117D01*
X0116800Y0005800D02*
X0116952Y0005802D01*
X0117103Y0005808D01*
X0117254Y0005817D01*
X0117406Y0005831D01*
X0117556Y0005848D01*
X0117706Y0005869D01*
X0117856Y0005894D01*
X0118005Y0005922D01*
X0118153Y0005955D01*
X0118300Y0005991D01*
X0118447Y0006030D01*
X0118592Y0006074D01*
X0118736Y0006121D01*
X0118879Y0006172D01*
X0119020Y0006226D01*
X0119161Y0006284D01*
X0119299Y0006345D01*
X0119436Y0006410D01*
X0119572Y0006479D01*
X0119705Y0006550D01*
X0119837Y0006625D01*
X0119967Y0006704D01*
X0120094Y0006785D01*
X0120220Y0006870D01*
X0120344Y0006958D01*
X0120465Y0007049D01*
X0120584Y0007143D01*
X0120700Y0007241D01*
X0120814Y0007341D01*
X0120926Y0007443D01*
X0121034Y0007549D01*
X0121140Y0007657D01*
X0121244Y0007768D01*
X0121344Y0007882D01*
X0121442Y0007998D01*
X0121536Y0008117D01*
X0116800Y0017800D02*
X0116650Y0017798D01*
X0116499Y0017792D01*
X0116349Y0017783D01*
X0116200Y0017770D01*
X0116050Y0017753D01*
X0115901Y0017732D01*
X0115753Y0017708D01*
X0115605Y0017680D01*
X0115458Y0017648D01*
X0115312Y0017613D01*
X0115167Y0017573D01*
X0115023Y0017531D01*
X0114880Y0017484D01*
X0114738Y0017434D01*
X0114597Y0017381D01*
X0114458Y0017324D01*
X0114320Y0017264D01*
X0114184Y0017200D01*
X0114050Y0017133D01*
X0113917Y0017062D01*
X0113786Y0016988D01*
X0113657Y0016911D01*
X0113530Y0016830D01*
X0113405Y0016747D01*
X0113282Y0016660D01*
X0113161Y0016571D01*
X0113043Y0016478D01*
X0112927Y0016382D01*
X0112813Y0016284D01*
X0112702Y0016183D01*
X0112593Y0016078D01*
X0112488Y0015972D01*
X0112384Y0015862D01*
X0112284Y0015750D01*
X0112186Y0015636D01*
X0112092Y0015519D01*
X0112000Y0015400D01*
X0154300Y0015300D02*
X0154300Y0008300D01*
X0154302Y0008240D01*
X0154307Y0008179D01*
X0154316Y0008120D01*
X0154329Y0008061D01*
X0154345Y0008002D01*
X0154365Y0007945D01*
X0154388Y0007890D01*
X0154415Y0007835D01*
X0154444Y0007783D01*
X0154477Y0007732D01*
X0154513Y0007683D01*
X0154551Y0007637D01*
X0154593Y0007593D01*
X0154637Y0007551D01*
X0154683Y0007513D01*
X0154732Y0007477D01*
X0154783Y0007444D01*
X0154835Y0007415D01*
X0154890Y0007388D01*
X0154945Y0007365D01*
X0155002Y0007345D01*
X0155061Y0007329D01*
X0155120Y0007316D01*
X0155179Y0007307D01*
X0155240Y0007302D01*
X0155300Y0007300D01*
X0156800Y0007300D01*
X0157300Y0007800D01*
X0176300Y0007800D01*
X0176800Y0007300D01*
X0178300Y0007300D01*
X0178360Y0007302D01*
X0178421Y0007307D01*
X0178480Y0007316D01*
X0178539Y0007329D01*
X0178598Y0007345D01*
X0178655Y0007365D01*
X0178710Y0007388D01*
X0178765Y0007415D01*
X0178817Y0007444D01*
X0178868Y0007477D01*
X0178917Y0007513D01*
X0178963Y0007551D01*
X0179007Y0007593D01*
X0179049Y0007637D01*
X0179087Y0007683D01*
X0179123Y0007732D01*
X0179156Y0007783D01*
X0179185Y0007835D01*
X0179212Y0007890D01*
X0179235Y0007945D01*
X0179255Y0008002D01*
X0179271Y0008061D01*
X0179284Y0008120D01*
X0179293Y0008179D01*
X0179298Y0008240D01*
X0179300Y0008300D01*
X0179300Y0015300D01*
X0179298Y0015360D01*
X0179293Y0015421D01*
X0179284Y0015480D01*
X0179271Y0015539D01*
X0179255Y0015598D01*
X0179235Y0015655D01*
X0179212Y0015710D01*
X0179185Y0015765D01*
X0179156Y0015817D01*
X0179123Y0015868D01*
X0179087Y0015917D01*
X0179049Y0015963D01*
X0179007Y0016007D01*
X0178963Y0016049D01*
X0178917Y0016087D01*
X0178868Y0016123D01*
X0178817Y0016156D01*
X0178765Y0016185D01*
X0178710Y0016212D01*
X0178655Y0016235D01*
X0178598Y0016255D01*
X0178539Y0016271D01*
X0178480Y0016284D01*
X0178421Y0016293D01*
X0178360Y0016298D01*
X0178300Y0016300D01*
X0176800Y0016300D01*
X0176300Y0015800D01*
X0157300Y0015800D01*
X0156800Y0016300D01*
X0155300Y0016300D01*
X0155240Y0016298D01*
X0155179Y0016293D01*
X0155120Y0016284D01*
X0155061Y0016271D01*
X0155002Y0016255D01*
X0154945Y0016235D01*
X0154890Y0016212D01*
X0154835Y0016185D01*
X0154783Y0016156D01*
X0154732Y0016123D01*
X0154683Y0016087D01*
X0154637Y0016049D01*
X0154593Y0016007D01*
X0154551Y0015963D01*
X0154513Y0015917D01*
X0154477Y0015868D01*
X0154444Y0015817D01*
X0154415Y0015765D01*
X0154388Y0015710D01*
X0154365Y0015655D01*
X0154345Y0015598D01*
X0154329Y0015539D01*
X0154316Y0015480D01*
X0154307Y0015421D01*
X0154302Y0015360D01*
X0154300Y0015300D01*
D14*
X0116800Y0019800D02*
X0116608Y0019798D01*
X0116416Y0019791D01*
X0116224Y0019779D01*
X0116032Y0019763D01*
X0115841Y0019742D01*
X0115651Y0019717D01*
X0115461Y0019687D01*
X0115272Y0019653D01*
X0115084Y0019614D01*
X0114897Y0019570D01*
X0114711Y0019522D01*
X0114526Y0019470D01*
X0114342Y0019413D01*
X0114160Y0019352D01*
X0113980Y0019286D01*
X0113801Y0019216D01*
X0113623Y0019142D01*
X0113448Y0019064D01*
X0113274Y0018981D01*
X0113103Y0018894D01*
X0112934Y0018804D01*
X0112767Y0018709D01*
X0112602Y0018610D01*
X0112439Y0018507D01*
X0112280Y0018400D01*
X0112122Y0018290D01*
X0111968Y0018176D01*
X0111816Y0018058D01*
X0111667Y0017936D01*
X0111521Y0017811D01*
X0111379Y0017683D01*
X0111239Y0017551D01*
X0111102Y0017416D01*
X0110969Y0017277D01*
X0110839Y0017136D01*
X0110713Y0016991D01*
X0110590Y0016843D01*
X0110471Y0016693D01*
X0110355Y0016539D01*
X0110243Y0016383D01*
X0110135Y0016224D01*
X0110030Y0016063D01*
X0109930Y0015899D01*
X0109834Y0015733D01*
X0109741Y0015565D01*
X0109854Y0007831D02*
X0109953Y0007662D01*
X0110057Y0007496D01*
X0110164Y0007332D01*
X0110275Y0007171D01*
X0110390Y0007013D01*
X0110509Y0006858D01*
X0110632Y0006705D01*
X0110758Y0006556D01*
X0110888Y0006410D01*
X0111022Y0006267D01*
X0111159Y0006127D01*
X0111299Y0005991D01*
X0111443Y0005858D01*
X0111590Y0005729D01*
X0111740Y0005603D01*
X0111893Y0005482D01*
X0112049Y0005363D01*
X0112208Y0005249D01*
X0112369Y0005139D01*
X0112534Y0005033D01*
X0112700Y0004930D01*
X0112870Y0004832D01*
X0113041Y0004738D01*
X0113215Y0004648D01*
X0113391Y0004563D01*
X0113569Y0004481D01*
X0113749Y0004405D01*
X0113931Y0004332D01*
X0114114Y0004264D01*
X0114299Y0004201D01*
X0114486Y0004142D01*
X0114674Y0004088D01*
X0114863Y0004038D01*
X0115053Y0003993D01*
X0115245Y0003953D01*
X0115437Y0003917D01*
X0115630Y0003886D01*
X0115824Y0003860D01*
X0116019Y0003838D01*
X0116214Y0003822D01*
X0116409Y0003810D01*
X0116605Y0003802D01*
X0116800Y0003800D01*
X0116993Y0003802D01*
X0117186Y0003809D01*
X0117378Y0003821D01*
X0117571Y0003837D01*
X0117763Y0003858D01*
X0117954Y0003884D01*
X0118144Y0003914D01*
X0118334Y0003949D01*
X0118523Y0003988D01*
X0118711Y0004032D01*
X0118898Y0004080D01*
X0119084Y0004133D01*
X0119268Y0004190D01*
X0119451Y0004252D01*
X0119632Y0004318D01*
X0119812Y0004389D01*
X0119990Y0004463D01*
X0120166Y0004542D01*
X0120340Y0004626D01*
X0120512Y0004713D01*
X0120682Y0004805D01*
X0120849Y0004901D01*
X0121015Y0005000D01*
X0121178Y0005104D01*
X0121338Y0005211D01*
X0121495Y0005323D01*
X0121650Y0005438D01*
X0121802Y0005557D01*
X0121951Y0005679D01*
X0122098Y0005805D01*
X0122241Y0005935D01*
X0122381Y0006068D01*
X0122517Y0006204D01*
X0122651Y0006344D01*
X0122780Y0006486D01*
X0122907Y0006632D01*
X0122946Y0016922D02*
X0122819Y0017070D01*
X0122689Y0017215D01*
X0122556Y0017356D01*
X0122419Y0017495D01*
X0122279Y0017630D01*
X0122135Y0017761D01*
X0121988Y0017889D01*
X0121839Y0018014D01*
X0121686Y0018135D01*
X0121531Y0018252D01*
X0121372Y0018365D01*
X0121211Y0018474D01*
X0121047Y0018579D01*
X0120881Y0018681D01*
X0120712Y0018778D01*
X0120542Y0018871D01*
X0120368Y0018960D01*
X0120193Y0019045D01*
X0120016Y0019125D01*
X0119837Y0019201D01*
X0119656Y0019273D01*
X0119473Y0019340D01*
X0119289Y0019403D01*
X0119103Y0019461D01*
X0118916Y0019515D01*
X0118728Y0019564D01*
X0118538Y0019609D01*
X0118348Y0019649D01*
X0118156Y0019684D01*
X0117964Y0019715D01*
X0117771Y0019741D01*
X0117577Y0019762D01*
X0117383Y0019779D01*
X0117189Y0019791D01*
X0116995Y0019798D01*
X0116800Y0019800D01*
X0062800Y0033800D02*
X0062800Y0036800D01*
X0062800Y0039800D01*
X0060800Y0039800D02*
X0060800Y0036800D01*
X0060800Y0033800D01*
X0018300Y0029030D02*
X0014297Y0029030D01*
X0014297Y0027696D02*
X0014297Y0030365D01*
X0014297Y0025961D02*
X0014297Y0024627D01*
X0014297Y0025294D02*
X0018300Y0025294D01*
X0018300Y0024627D02*
X0018300Y0025961D01*
X0018300Y0022692D02*
X0016298Y0020690D01*
X0016966Y0020023D02*
X0014297Y0022692D01*
X0014297Y0020023D02*
X0018300Y0020023D01*
X0017633Y0018088D02*
X0018300Y0017421D01*
X0018300Y0016086D01*
X0017633Y0015419D01*
X0014964Y0015419D01*
X0014297Y0016086D01*
X0014297Y0017421D01*
X0014964Y0018088D01*
X0014297Y0013684D02*
X0014297Y0012350D01*
X0014297Y0013017D02*
X0018300Y0013017D01*
X0018300Y0012350D02*
X0018300Y0013684D01*
X0016298Y0010415D02*
X0016966Y0009747D01*
X0016966Y0007746D01*
X0018300Y0007746D02*
X0014297Y0007746D01*
X0014297Y0009747D01*
X0014964Y0010415D01*
X0016298Y0010415D01*
X0123800Y0155800D02*
X0126800Y0155800D01*
X0129800Y0155800D01*
X0129800Y0157800D02*
X0126800Y0157800D01*
X0123800Y0157800D01*
X0125800Y0173800D02*
X0125800Y0176800D01*
X0125800Y0179800D01*
X0127800Y0179800D02*
X0127800Y0176800D01*
X0127800Y0173800D01*
X0127800Y0188800D02*
X0127800Y0191800D01*
X0127800Y0194800D01*
X0125800Y0194800D02*
X0125800Y0191800D01*
X0125800Y0188800D01*
X0179854Y0182831D02*
X0179953Y0182662D01*
X0180057Y0182496D01*
X0180164Y0182332D01*
X0180275Y0182171D01*
X0180390Y0182013D01*
X0180509Y0181858D01*
X0180632Y0181705D01*
X0180758Y0181556D01*
X0180888Y0181410D01*
X0181022Y0181267D01*
X0181159Y0181127D01*
X0181299Y0180991D01*
X0181443Y0180858D01*
X0181590Y0180729D01*
X0181740Y0180603D01*
X0181893Y0180482D01*
X0182049Y0180363D01*
X0182208Y0180249D01*
X0182369Y0180139D01*
X0182534Y0180033D01*
X0182700Y0179930D01*
X0182870Y0179832D01*
X0183041Y0179738D01*
X0183215Y0179648D01*
X0183391Y0179563D01*
X0183569Y0179481D01*
X0183749Y0179405D01*
X0183931Y0179332D01*
X0184114Y0179264D01*
X0184299Y0179201D01*
X0184486Y0179142D01*
X0184674Y0179088D01*
X0184863Y0179038D01*
X0185053Y0178993D01*
X0185245Y0178953D01*
X0185437Y0178917D01*
X0185630Y0178886D01*
X0185824Y0178860D01*
X0186019Y0178838D01*
X0186214Y0178822D01*
X0186409Y0178810D01*
X0186605Y0178802D01*
X0186800Y0178800D01*
X0179741Y0190565D02*
X0179834Y0190733D01*
X0179930Y0190899D01*
X0180030Y0191063D01*
X0180135Y0191224D01*
X0180243Y0191383D01*
X0180355Y0191539D01*
X0180471Y0191693D01*
X0180590Y0191843D01*
X0180713Y0191991D01*
X0180839Y0192136D01*
X0180969Y0192277D01*
X0181102Y0192416D01*
X0181239Y0192551D01*
X0181379Y0192683D01*
X0181521Y0192811D01*
X0181667Y0192936D01*
X0181816Y0193058D01*
X0181968Y0193176D01*
X0182122Y0193290D01*
X0182280Y0193400D01*
X0182439Y0193507D01*
X0182602Y0193610D01*
X0182767Y0193709D01*
X0182934Y0193804D01*
X0183103Y0193894D01*
X0183274Y0193981D01*
X0183448Y0194064D01*
X0183623Y0194142D01*
X0183801Y0194216D01*
X0183980Y0194286D01*
X0184160Y0194352D01*
X0184342Y0194413D01*
X0184526Y0194470D01*
X0184711Y0194522D01*
X0184897Y0194570D01*
X0185084Y0194614D01*
X0185272Y0194653D01*
X0185461Y0194687D01*
X0185651Y0194717D01*
X0185841Y0194742D01*
X0186032Y0194763D01*
X0186224Y0194779D01*
X0186416Y0194791D01*
X0186608Y0194798D01*
X0186800Y0194800D01*
X0192907Y0181632D02*
X0192780Y0181486D01*
X0192651Y0181344D01*
X0192517Y0181204D01*
X0192381Y0181068D01*
X0192241Y0180935D01*
X0192098Y0180805D01*
X0191951Y0180679D01*
X0191802Y0180557D01*
X0191650Y0180438D01*
X0191495Y0180323D01*
X0191338Y0180211D01*
X0191178Y0180104D01*
X0191015Y0180000D01*
X0190849Y0179901D01*
X0190682Y0179805D01*
X0190512Y0179713D01*
X0190340Y0179626D01*
X0190166Y0179542D01*
X0189990Y0179463D01*
X0189812Y0179389D01*
X0189632Y0179318D01*
X0189451Y0179252D01*
X0189268Y0179190D01*
X0189084Y0179133D01*
X0188898Y0179080D01*
X0188711Y0179032D01*
X0188523Y0178988D01*
X0188334Y0178949D01*
X0188144Y0178914D01*
X0187954Y0178884D01*
X0187763Y0178858D01*
X0187571Y0178837D01*
X0187378Y0178821D01*
X0187186Y0178809D01*
X0186993Y0178802D01*
X0186800Y0178800D01*
X0192946Y0191922D02*
X0192819Y0192070D01*
X0192689Y0192215D01*
X0192556Y0192356D01*
X0192419Y0192495D01*
X0192279Y0192630D01*
X0192135Y0192761D01*
X0191988Y0192889D01*
X0191839Y0193014D01*
X0191686Y0193135D01*
X0191531Y0193252D01*
X0191372Y0193365D01*
X0191211Y0193474D01*
X0191047Y0193579D01*
X0190881Y0193681D01*
X0190712Y0193778D01*
X0190542Y0193871D01*
X0190368Y0193960D01*
X0190193Y0194045D01*
X0190016Y0194125D01*
X0189837Y0194201D01*
X0189656Y0194273D01*
X0189473Y0194340D01*
X0189289Y0194403D01*
X0189103Y0194461D01*
X0188916Y0194515D01*
X0188728Y0194564D01*
X0188538Y0194609D01*
X0188348Y0194649D01*
X0188156Y0194684D01*
X0187964Y0194715D01*
X0187771Y0194741D01*
X0187577Y0194762D01*
X0187383Y0194779D01*
X0187189Y0194791D01*
X0186995Y0194798D01*
X0186800Y0194800D01*
D15*
X0173050Y0193112D02*
X0169297Y0193112D01*
X0168546Y0193863D01*
X0170798Y0193863D02*
X0170798Y0192362D01*
X0170047Y0190760D02*
X0173050Y0190760D01*
X0173050Y0188508D01*
X0172299Y0187758D01*
X0170047Y0187758D01*
X0169297Y0186156D02*
X0168546Y0185406D01*
X0168546Y0183905D01*
X0169297Y0183154D01*
X0172299Y0183154D01*
X0169297Y0186156D01*
X0172299Y0186156D01*
X0173050Y0185406D01*
X0173050Y0183905D01*
X0172299Y0183154D01*
X0173050Y0181553D02*
X0173050Y0178550D01*
X0173050Y0180051D02*
X0168546Y0180051D01*
X0170047Y0178550D01*
X0179550Y0178054D02*
X0179550Y0173550D01*
X0182553Y0173550D01*
X0184154Y0173550D02*
X0187156Y0173550D01*
X0188758Y0173550D02*
X0191010Y0173550D01*
X0191760Y0174301D01*
X0191760Y0177303D01*
X0191010Y0178054D01*
X0188758Y0178054D01*
X0188758Y0173550D01*
X0188758Y0170054D02*
X0191010Y0170054D01*
X0191760Y0169303D01*
X0191760Y0166301D01*
X0191010Y0165550D01*
X0188758Y0165550D01*
X0188758Y0170054D01*
X0187156Y0170054D02*
X0184154Y0170054D01*
X0184154Y0165550D01*
X0187156Y0165550D01*
X0185655Y0167802D02*
X0184154Y0167802D01*
X0182553Y0167802D02*
X0181802Y0167051D01*
X0179550Y0167051D01*
X0179550Y0165550D02*
X0179550Y0170054D01*
X0181802Y0170054D01*
X0182553Y0169303D01*
X0182553Y0167802D01*
X0181051Y0167051D02*
X0182553Y0165550D01*
X0184154Y0173550D02*
X0184154Y0178054D01*
X0187156Y0178054D01*
X0185655Y0175802D02*
X0184154Y0175802D01*
X0193362Y0176553D02*
X0194863Y0178054D01*
X0194863Y0173550D01*
X0193362Y0173550D02*
X0196364Y0173550D01*
X0170360Y0158303D02*
X0170360Y0155301D01*
X0169610Y0154550D01*
X0168108Y0154550D01*
X0167358Y0155301D01*
X0170360Y0158303D01*
X0169610Y0159054D01*
X0168108Y0159054D01*
X0167358Y0158303D01*
X0167358Y0155301D01*
X0165756Y0155301D02*
X0165006Y0154550D01*
X0163505Y0154550D01*
X0162754Y0155301D01*
X0161153Y0155301D02*
X0160402Y0154550D01*
X0158901Y0154550D01*
X0158150Y0155301D01*
X0159651Y0156802D02*
X0160402Y0156802D01*
X0161153Y0156051D01*
X0161153Y0155301D01*
X0160402Y0156802D02*
X0161153Y0157553D01*
X0161153Y0158303D01*
X0160402Y0159054D01*
X0158901Y0159054D01*
X0158150Y0158303D01*
X0162754Y0158303D02*
X0163505Y0159054D01*
X0165006Y0159054D01*
X0165756Y0158303D01*
X0165756Y0157553D01*
X0165006Y0156802D01*
X0165756Y0156051D01*
X0165756Y0155301D01*
X0165006Y0156802D02*
X0164255Y0156802D01*
X0162656Y0163050D02*
X0159654Y0163050D01*
X0161155Y0163050D02*
X0161155Y0167554D01*
X0159654Y0166053D01*
X0158053Y0166803D02*
X0158053Y0165302D01*
X0157302Y0164551D01*
X0155050Y0164551D01*
X0155050Y0163050D02*
X0155050Y0167554D01*
X0157302Y0167554D01*
X0158053Y0166803D01*
X0156551Y0164551D02*
X0158053Y0163050D01*
X0145656Y0170302D02*
X0142654Y0170302D01*
X0144906Y0172554D01*
X0144906Y0168050D01*
X0144799Y0170550D02*
X0141797Y0170550D01*
X0141046Y0171301D01*
X0141046Y0172802D01*
X0141797Y0173553D01*
X0140302Y0172554D02*
X0141053Y0171803D01*
X0140302Y0172554D02*
X0138801Y0172554D01*
X0138050Y0171803D01*
X0138050Y0168801D01*
X0138801Y0168050D01*
X0140302Y0168050D01*
X0141053Y0168801D01*
X0144799Y0170550D02*
X0145550Y0171301D01*
X0145550Y0172802D01*
X0144799Y0173553D01*
X0144799Y0175154D02*
X0145550Y0175905D01*
X0145550Y0177406D01*
X0144799Y0178156D01*
X0144049Y0178156D01*
X0143298Y0177406D01*
X0143298Y0175154D01*
X0144799Y0175154D01*
X0143298Y0175154D02*
X0141797Y0176655D01*
X0141046Y0178156D01*
X0134914Y0181050D02*
X0134914Y0184803D01*
X0135665Y0185554D01*
X0135665Y0183302D02*
X0134164Y0183302D01*
X0132562Y0184053D02*
X0132562Y0181050D01*
X0130310Y0181050D01*
X0129560Y0181801D01*
X0129560Y0184053D01*
X0127958Y0181050D02*
X0124956Y0181050D01*
X0126457Y0181050D02*
X0126457Y0185554D01*
X0124956Y0184053D01*
X0123405Y0181801D02*
X0123405Y0181050D01*
X0122654Y0181050D01*
X0122654Y0181801D01*
X0123405Y0181801D01*
X0121053Y0181801D02*
X0120302Y0181050D01*
X0118801Y0181050D01*
X0118050Y0181801D01*
X0121053Y0184803D01*
X0121053Y0181801D01*
X0120176Y0180803D02*
X0119425Y0181554D01*
X0117924Y0181554D01*
X0117174Y0180803D01*
X0118050Y0181801D02*
X0118050Y0184803D01*
X0118801Y0185554D01*
X0120302Y0185554D01*
X0121053Y0184803D01*
X0120655Y0188799D02*
X0120655Y0194804D01*
X0119905Y0194054D02*
X0121406Y0194054D01*
X0122156Y0193303D01*
X0123758Y0193303D02*
X0124508Y0194054D01*
X0126010Y0194054D01*
X0126760Y0193303D01*
X0126760Y0192553D01*
X0126010Y0191802D01*
X0126760Y0191051D01*
X0126760Y0190301D01*
X0126010Y0189550D01*
X0124508Y0189550D01*
X0123758Y0190301D01*
X0122156Y0190301D02*
X0121406Y0189550D01*
X0119905Y0189550D01*
X0119154Y0190301D01*
X0117553Y0190301D02*
X0116802Y0189550D01*
X0115301Y0189550D01*
X0114550Y0190301D01*
X0114550Y0194054D01*
X0117553Y0194054D02*
X0117553Y0190301D01*
X0119154Y0192553D02*
X0119154Y0193303D01*
X0119905Y0194054D01*
X0119154Y0192553D02*
X0119905Y0191802D01*
X0121406Y0191802D01*
X0122156Y0191051D01*
X0122156Y0190301D01*
X0125259Y0191802D02*
X0126010Y0191802D01*
X0120176Y0180803D02*
X0120176Y0180053D01*
X0117174Y0177050D01*
X0120176Y0177050D01*
X0115572Y0177801D02*
X0115572Y0180803D01*
X0112570Y0177801D01*
X0113320Y0177050D01*
X0114822Y0177050D01*
X0115572Y0177801D01*
X0115572Y0180803D02*
X0114822Y0181554D01*
X0113320Y0181554D01*
X0112570Y0180803D01*
X0112570Y0177801D01*
X0110968Y0180803D02*
X0107966Y0177801D01*
X0107966Y0177050D01*
X0106364Y0177050D02*
X0103362Y0177050D01*
X0104863Y0177050D02*
X0104863Y0181554D01*
X0103362Y0180053D01*
X0101760Y0180803D02*
X0101760Y0179302D01*
X0101010Y0178551D01*
X0098758Y0178551D01*
X0098758Y0177050D02*
X0098758Y0181554D01*
X0101010Y0181554D01*
X0101760Y0180803D01*
X0097156Y0180803D02*
X0096406Y0181554D01*
X0094905Y0181554D01*
X0094154Y0180803D01*
X0094154Y0177801D01*
X0094905Y0177050D01*
X0096406Y0177050D01*
X0097156Y0177801D01*
X0093554Y0180300D02*
X0110046Y0180300D01*
X0110968Y0180803D02*
X0110968Y0181554D01*
X0107966Y0181554D01*
X0110673Y0185800D02*
X0112252Y0185800D01*
X0102927Y0185800D02*
X0100673Y0185800D01*
X0093554Y0180300D02*
X0093401Y0180499D01*
X0093253Y0180701D01*
X0093110Y0180906D01*
X0092972Y0181115D01*
X0092839Y0181327D01*
X0092711Y0181542D01*
X0092589Y0181760D01*
X0092471Y0181981D01*
X0092359Y0182205D01*
X0092252Y0182431D01*
X0092151Y0182660D01*
X0092055Y0182891D01*
X0091964Y0183125D01*
X0091879Y0183360D01*
X0091800Y0183598D01*
X0091727Y0183837D01*
X0091659Y0184078D01*
X0091597Y0184320D01*
X0091541Y0184564D01*
X0091490Y0184810D01*
X0091446Y0185056D01*
X0091407Y0185303D01*
X0091375Y0185551D01*
X0091348Y0185800D01*
X0092927Y0185800D01*
X0092553Y0181554D02*
X0092553Y0177050D01*
X0089550Y0177050D02*
X0089550Y0181554D01*
X0091051Y0180053D01*
X0092553Y0181554D01*
X0110046Y0180300D02*
X0110201Y0180502D01*
X0110351Y0180707D01*
X0110497Y0180916D01*
X0110637Y0181129D01*
X0110772Y0181345D01*
X0110901Y0181564D01*
X0111025Y0181786D01*
X0111144Y0182011D01*
X0111257Y0182239D01*
X0111365Y0182469D01*
X0111467Y0182702D01*
X0111564Y0182938D01*
X0111655Y0183176D01*
X0111740Y0183415D01*
X0111819Y0183657D01*
X0111892Y0183901D01*
X0111959Y0184146D01*
X0112021Y0184393D01*
X0112076Y0184642D01*
X0112125Y0184892D01*
X0112168Y0185142D01*
X0112205Y0185394D01*
X0112236Y0185647D01*
X0112261Y0185900D01*
X0112280Y0186154D01*
X0112293Y0186408D01*
X0112299Y0186662D01*
X0112299Y0186917D01*
X0112293Y0187171D01*
X0112281Y0187426D01*
X0112263Y0187679D01*
X0112239Y0187933D01*
X0112208Y0188185D01*
X0112172Y0188437D01*
X0112129Y0188688D01*
X0112080Y0188938D01*
X0112025Y0189186D01*
X0111964Y0189433D01*
X0111898Y0189679D01*
X0111825Y0189923D01*
X0111746Y0190165D01*
X0111662Y0190405D01*
X0111571Y0190643D01*
X0111475Y0190879D01*
X0111374Y0191112D01*
X0111266Y0191343D01*
X0111154Y0191571D01*
X0111035Y0191796D01*
X0110911Y0192018D01*
X0110782Y0192238D01*
X0110648Y0192454D01*
X0110508Y0192667D01*
X0110363Y0192876D01*
X0110214Y0193082D01*
X0110059Y0193284D01*
X0109899Y0193482D01*
X0109735Y0193676D01*
X0109566Y0193867D01*
X0109393Y0194053D01*
X0109215Y0194235D01*
X0109032Y0194412D01*
X0108846Y0194585D01*
X0108655Y0194754D01*
X0108460Y0194918D01*
X0108261Y0195077D01*
X0108059Y0195231D01*
X0107853Y0195380D01*
X0107643Y0195524D01*
X0107430Y0195663D01*
X0107213Y0195797D01*
X0106994Y0195926D01*
X0106771Y0196049D01*
X0106545Y0196166D01*
X0106317Y0196279D01*
X0106086Y0196385D01*
X0105852Y0196486D01*
X0105616Y0196582D01*
X0105378Y0196671D01*
X0105138Y0196755D01*
X0104896Y0196833D01*
X0098704Y0196833D02*
X0098460Y0196755D01*
X0098218Y0196670D01*
X0097979Y0196580D01*
X0097741Y0196484D01*
X0097506Y0196382D01*
X0097273Y0196274D01*
X0097043Y0196161D01*
X0096816Y0196042D01*
X0096592Y0195918D01*
X0096371Y0195788D01*
X0096154Y0195653D01*
X0095939Y0195512D01*
X0095728Y0195366D01*
X0095521Y0195216D01*
X0095318Y0195060D01*
X0095118Y0194899D01*
X0094922Y0194734D01*
X0094731Y0194564D01*
X0094543Y0194389D01*
X0094360Y0194209D01*
X0094182Y0194026D01*
X0094007Y0193837D01*
X0093838Y0193645D01*
X0093673Y0193449D01*
X0093513Y0193248D01*
X0093359Y0193044D01*
X0093209Y0192836D01*
X0093064Y0192625D01*
X0092924Y0192410D01*
X0092790Y0192192D01*
X0092661Y0191970D01*
X0092538Y0191746D01*
X0092420Y0191518D01*
X0092307Y0191288D01*
X0092201Y0191055D01*
X0092100Y0190819D01*
X0092004Y0190581D01*
X0091915Y0190341D01*
X0091832Y0190099D01*
X0091754Y0189854D01*
X0091683Y0189608D01*
X0091617Y0189360D01*
X0091558Y0189111D01*
X0091504Y0188861D01*
X0091457Y0188609D01*
X0091416Y0188356D01*
X0091381Y0188102D01*
X0091352Y0187847D01*
X0091330Y0187592D01*
X0091314Y0187336D01*
X0091304Y0187080D01*
X0091300Y0186824D01*
X0091303Y0186567D01*
X0091311Y0186311D01*
X0091326Y0186055D01*
X0091348Y0185800D01*
X0118050Y0169803D02*
X0118050Y0166801D01*
X0121053Y0169803D01*
X0121053Y0166801D01*
X0120302Y0166050D01*
X0118801Y0166050D01*
X0118050Y0166801D01*
X0118050Y0169803D02*
X0118801Y0170554D01*
X0120302Y0170554D01*
X0121053Y0169803D01*
X0122654Y0166801D02*
X0123405Y0166801D01*
X0123405Y0166050D01*
X0122654Y0166050D01*
X0122654Y0166801D01*
X0124956Y0166050D02*
X0127958Y0166050D01*
X0126457Y0166050D02*
X0126457Y0170554D01*
X0124956Y0169053D01*
X0129560Y0169053D02*
X0129560Y0166801D01*
X0130310Y0166050D01*
X0132562Y0166050D01*
X0132562Y0169053D01*
X0134164Y0168302D02*
X0135665Y0168302D01*
X0134914Y0169803D02*
X0134914Y0166050D01*
X0135298Y0165665D02*
X0135298Y0164164D01*
X0133797Y0164914D02*
X0133046Y0165665D01*
X0133797Y0164914D02*
X0137550Y0164914D01*
X0137550Y0162562D02*
X0134547Y0162562D01*
X0134547Y0159560D02*
X0136799Y0159560D01*
X0137550Y0160310D01*
X0137550Y0162562D01*
X0137550Y0157958D02*
X0137550Y0154956D01*
X0137550Y0156457D02*
X0133046Y0156457D01*
X0134547Y0154956D01*
X0136799Y0153405D02*
X0136799Y0152654D01*
X0137550Y0152654D01*
X0137550Y0153405D01*
X0136799Y0153405D01*
X0136799Y0151053D02*
X0133797Y0151053D01*
X0136799Y0148050D01*
X0137550Y0148801D01*
X0137550Y0150302D01*
X0136799Y0151053D01*
X0133797Y0151053D02*
X0133046Y0150302D01*
X0133046Y0148801D01*
X0133797Y0148050D01*
X0136799Y0148050D01*
X0120550Y0148801D02*
X0120550Y0150302D01*
X0119799Y0151053D01*
X0120550Y0152654D02*
X0120550Y0155656D01*
X0120550Y0154155D02*
X0116046Y0154155D01*
X0117547Y0152654D01*
X0116797Y0151053D02*
X0116046Y0150302D01*
X0116046Y0148801D01*
X0116797Y0148050D01*
X0119799Y0148050D01*
X0120550Y0148801D01*
X0134914Y0169803D02*
X0135665Y0170554D01*
X0138801Y0188050D02*
X0140302Y0188050D01*
X0141053Y0188801D01*
X0142654Y0188801D02*
X0143405Y0188050D01*
X0144906Y0188050D01*
X0145656Y0188801D01*
X0145656Y0189551D01*
X0144906Y0190302D01*
X0144155Y0190302D01*
X0144906Y0190302D02*
X0145656Y0191053D01*
X0145656Y0191803D01*
X0144906Y0192554D01*
X0143405Y0192554D01*
X0142654Y0191803D01*
X0141053Y0191803D02*
X0140302Y0192554D01*
X0138801Y0192554D01*
X0138050Y0191803D01*
X0138050Y0188801D01*
X0138801Y0188050D01*
X0138156Y0102554D02*
X0135154Y0102554D01*
X0135154Y0100302D01*
X0136655Y0101053D01*
X0137406Y0101053D01*
X0138156Y0100302D01*
X0138156Y0098801D01*
X0137406Y0098050D01*
X0135905Y0098050D01*
X0135154Y0098801D01*
X0133553Y0098801D02*
X0132802Y0098050D01*
X0131301Y0098050D01*
X0130550Y0098801D01*
X0130550Y0101803D01*
X0131301Y0102554D01*
X0132802Y0102554D01*
X0133553Y0101803D01*
X0158546Y0100863D02*
X0159297Y0100112D01*
X0163050Y0100112D01*
X0163050Y0097760D02*
X0160047Y0097760D01*
X0160798Y0099362D02*
X0160798Y0100863D01*
X0163050Y0097760D02*
X0163050Y0095508D01*
X0162299Y0094758D01*
X0160047Y0094758D01*
X0159297Y0093156D02*
X0162299Y0090154D01*
X0163050Y0090905D01*
X0163050Y0092406D01*
X0162299Y0093156D01*
X0159297Y0093156D01*
X0158546Y0092406D01*
X0158546Y0090905D01*
X0159297Y0090154D01*
X0162299Y0090154D01*
X0163050Y0088553D02*
X0163050Y0085550D01*
X0163050Y0087051D02*
X0158546Y0087051D01*
X0160047Y0085550D01*
X0164842Y0020554D02*
X0167094Y0020554D01*
X0167845Y0019803D01*
X0167845Y0018302D01*
X0167094Y0017551D01*
X0164842Y0017551D01*
X0164842Y0016050D02*
X0164842Y0020554D01*
X0166343Y0017551D02*
X0167845Y0016050D01*
X0169446Y0016050D02*
X0172449Y0019053D01*
X0172449Y0019803D01*
X0171698Y0020554D01*
X0170197Y0020554D01*
X0169446Y0019803D01*
X0169446Y0016050D02*
X0172449Y0016050D01*
X0172097Y0014054D02*
X0173598Y0014054D01*
X0174349Y0013303D01*
X0171346Y0010301D01*
X0172097Y0009550D01*
X0173598Y0009550D01*
X0174349Y0010301D01*
X0174349Y0013303D01*
X0172097Y0014054D02*
X0171346Y0013303D01*
X0171346Y0010301D01*
X0169745Y0010301D02*
X0169745Y0011051D01*
X0168994Y0011802D01*
X0168243Y0011802D01*
X0168994Y0011802D02*
X0169745Y0012553D01*
X0169745Y0013303D01*
X0168994Y0014054D01*
X0167493Y0014054D01*
X0166742Y0013303D01*
X0165141Y0013303D02*
X0165141Y0012553D01*
X0164390Y0011802D01*
X0165141Y0011051D01*
X0165141Y0010301D01*
X0164390Y0009550D01*
X0162889Y0009550D01*
X0162138Y0010301D01*
X0163639Y0011802D02*
X0164390Y0011802D01*
X0165141Y0013303D02*
X0164390Y0014054D01*
X0162889Y0014054D01*
X0162138Y0013303D01*
X0166742Y0010301D02*
X0167493Y0009550D01*
X0168994Y0009550D01*
X0169745Y0010301D01*
X0145968Y0010054D02*
X0145968Y0005550D01*
X0142966Y0010054D01*
X0142966Y0005550D01*
X0141364Y0005550D02*
X0138362Y0005550D01*
X0138362Y0010054D01*
X0141364Y0010054D01*
X0139863Y0007802D02*
X0138362Y0007802D01*
X0136760Y0010054D02*
X0133758Y0010054D01*
X0133758Y0005550D01*
X0136760Y0005550D01*
X0135259Y0007802D02*
X0133758Y0007802D01*
X0132156Y0007802D02*
X0132156Y0009303D01*
X0131406Y0010054D01*
X0129154Y0010054D01*
X0129154Y0005550D01*
X0129154Y0007051D02*
X0131406Y0007051D01*
X0132156Y0007802D01*
X0130655Y0007051D02*
X0132156Y0005550D01*
X0127553Y0006301D02*
X0127553Y0007802D01*
X0126051Y0007802D01*
X0124550Y0009303D02*
X0124550Y0006301D01*
X0125301Y0005550D01*
X0126802Y0005550D01*
X0127553Y0006301D01*
X0127553Y0009303D02*
X0126802Y0010054D01*
X0125301Y0010054D01*
X0124550Y0009303D01*
X0124550Y0013550D02*
X0127553Y0013550D01*
X0129154Y0013550D02*
X0132156Y0013550D01*
X0133758Y0013550D02*
X0136010Y0013550D01*
X0136760Y0014301D01*
X0136760Y0017303D01*
X0136010Y0018054D01*
X0133758Y0018054D01*
X0133758Y0013550D01*
X0130655Y0015802D02*
X0129154Y0015802D01*
X0129154Y0018054D02*
X0129154Y0013550D01*
X0129154Y0018054D02*
X0132156Y0018054D01*
X0138362Y0017303D02*
X0139112Y0018054D01*
X0140614Y0018054D01*
X0141364Y0017303D01*
X0141364Y0016553D01*
X0138362Y0013550D01*
X0141364Y0013550D01*
X0124550Y0013550D02*
X0124550Y0018054D01*
X0102737Y0017867D02*
X0102421Y0017550D01*
X0101787Y0017550D01*
X0101470Y0017867D01*
X0101470Y0018501D02*
X0102104Y0018818D01*
X0102421Y0018818D01*
X0102737Y0018501D01*
X0102737Y0017867D01*
X0101470Y0018501D02*
X0101470Y0019452D01*
X0102737Y0019452D01*
X0100528Y0019135D02*
X0100211Y0019452D01*
X0099577Y0019452D01*
X0099260Y0019135D01*
X0099260Y0018818D01*
X0099577Y0018501D01*
X0100211Y0018501D01*
X0100528Y0018184D01*
X0100528Y0017867D01*
X0100211Y0017550D01*
X0099577Y0017550D01*
X0099260Y0017867D01*
X0099894Y0017233D02*
X0099894Y0019769D01*
X0098318Y0019452D02*
X0098318Y0017867D01*
X0098001Y0017550D01*
X0097367Y0017550D01*
X0097050Y0017867D01*
X0097050Y0019452D01*
X0081800Y0011800D02*
X0076800Y0011800D01*
X0074300Y0014300D01*
X0074300Y0011800D02*
X0071800Y0011800D01*
X0069914Y0026050D02*
X0069914Y0029803D01*
X0070665Y0030554D01*
X0070665Y0028302D02*
X0069164Y0028302D01*
X0067562Y0029053D02*
X0067562Y0026050D01*
X0065310Y0026050D01*
X0064560Y0026801D01*
X0064560Y0029053D01*
X0062958Y0026050D02*
X0059956Y0026050D01*
X0061457Y0026050D02*
X0061457Y0030554D01*
X0059956Y0029053D01*
X0058405Y0026801D02*
X0057654Y0026801D01*
X0057654Y0026050D01*
X0058405Y0026050D01*
X0058405Y0026801D01*
X0056053Y0026801D02*
X0056053Y0029803D01*
X0053050Y0026801D01*
X0053801Y0026050D01*
X0055302Y0026050D01*
X0056053Y0026801D01*
X0053050Y0026801D02*
X0053050Y0029803D01*
X0053801Y0030554D01*
X0055302Y0030554D01*
X0056053Y0029803D01*
X0054894Y0019769D02*
X0054894Y0017233D01*
X0055211Y0017550D02*
X0055528Y0017867D01*
X0055528Y0018184D01*
X0055211Y0018501D01*
X0054577Y0018501D01*
X0054260Y0018818D01*
X0054260Y0019135D01*
X0054577Y0019452D01*
X0055211Y0019452D01*
X0055528Y0019135D01*
X0056470Y0018501D02*
X0057737Y0018501D01*
X0057421Y0019452D02*
X0056470Y0018501D01*
X0057421Y0017550D02*
X0057421Y0019452D01*
X0055211Y0017550D02*
X0054577Y0017550D01*
X0054260Y0017867D01*
X0053318Y0017867D02*
X0053318Y0019452D01*
X0052050Y0019452D02*
X0052050Y0017867D01*
X0052367Y0017550D01*
X0053001Y0017550D01*
X0053318Y0017867D01*
X0036800Y0011800D02*
X0031800Y0011800D01*
X0029300Y0014300D01*
X0029300Y0011800D02*
X0026800Y0011800D01*
X0031046Y0040050D02*
X0031046Y0042302D01*
X0031797Y0043053D01*
X0033298Y0043053D01*
X0034049Y0042302D01*
X0034049Y0040050D01*
X0035550Y0040050D02*
X0031046Y0040050D01*
X0034049Y0041551D02*
X0035550Y0043053D01*
X0033298Y0044654D02*
X0033298Y0047656D01*
X0031046Y0046906D02*
X0033298Y0044654D01*
X0035550Y0046906D02*
X0031046Y0046906D01*
X0029050Y0046153D02*
X0029050Y0043150D01*
X0029050Y0044651D02*
X0024546Y0044651D01*
X0026047Y0043150D01*
X0020550Y0043053D02*
X0019049Y0041551D01*
X0019049Y0042302D02*
X0019049Y0040050D01*
X0020550Y0040050D02*
X0016046Y0040050D01*
X0016046Y0042302D01*
X0016797Y0043053D01*
X0018298Y0043053D01*
X0019049Y0042302D01*
X0019799Y0044654D02*
X0020550Y0045405D01*
X0020550Y0046906D01*
X0019799Y0047656D01*
X0019049Y0047656D01*
X0018298Y0046906D01*
X0018298Y0046155D01*
X0018298Y0046906D02*
X0017547Y0047656D01*
X0016797Y0047656D01*
X0016046Y0046906D01*
X0016046Y0045405D01*
X0016797Y0044654D01*
X0014133Y0047920D02*
X0012548Y0047920D01*
X0012548Y0049188D02*
X0014133Y0049188D01*
X0014450Y0048871D01*
X0014450Y0048237D01*
X0014133Y0047920D01*
X0014133Y0050130D02*
X0014450Y0050447D01*
X0014450Y0051081D01*
X0014133Y0051398D01*
X0013816Y0051398D01*
X0013499Y0051081D01*
X0013499Y0050447D01*
X0013182Y0050130D01*
X0012865Y0050130D01*
X0012548Y0050447D01*
X0012548Y0051081D01*
X0012865Y0051398D01*
X0012231Y0050764D02*
X0014767Y0050764D01*
X0014133Y0052340D02*
X0013816Y0052340D01*
X0013499Y0052657D01*
X0013499Y0053291D01*
X0013816Y0053608D01*
X0014133Y0053608D01*
X0014450Y0053291D01*
X0014450Y0052657D01*
X0014133Y0052340D01*
X0013499Y0052657D02*
X0013182Y0052340D01*
X0012865Y0052340D01*
X0012548Y0052657D01*
X0012548Y0053291D01*
X0012865Y0053608D01*
X0013182Y0053608D01*
X0013499Y0053291D01*
X0016800Y0056800D02*
X0011800Y0061800D01*
X0016800Y0066800D01*
X0016800Y0056800D01*
X0016800Y0057135D02*
X0016465Y0057135D01*
X0016800Y0057633D02*
X0015967Y0057633D01*
X0015468Y0058132D02*
X0016800Y0058132D01*
X0016800Y0058630D02*
X0014970Y0058630D01*
X0014471Y0059129D02*
X0016800Y0059129D01*
X0016800Y0059627D02*
X0013973Y0059627D01*
X0013474Y0060126D02*
X0016800Y0060126D01*
X0016800Y0060624D02*
X0012976Y0060624D01*
X0012477Y0061123D02*
X0016800Y0061123D01*
X0016800Y0061621D02*
X0011979Y0061621D01*
X0012120Y0062120D02*
X0016800Y0062120D01*
X0016800Y0062618D02*
X0012618Y0062618D01*
X0013117Y0063117D02*
X0016800Y0063117D01*
X0016800Y0063615D02*
X0013615Y0063615D01*
X0014114Y0064114D02*
X0016800Y0064114D01*
X0016800Y0064612D02*
X0014612Y0064612D01*
X0015111Y0065111D02*
X0016800Y0065111D01*
X0016800Y0065609D02*
X0015609Y0065609D01*
X0016108Y0066108D02*
X0016800Y0066108D01*
X0016800Y0066606D02*
X0016606Y0066606D01*
X0026047Y0054610D02*
X0027549Y0052358D01*
X0029050Y0054610D01*
X0029050Y0052358D02*
X0024546Y0052358D01*
X0025297Y0050756D02*
X0028299Y0047754D01*
X0029050Y0048505D01*
X0029050Y0050006D01*
X0028299Y0050756D01*
X0025297Y0050756D01*
X0024546Y0050006D01*
X0024546Y0048505D01*
X0025297Y0047754D01*
X0028299Y0047754D01*
X0039546Y0048505D02*
X0039546Y0050006D01*
X0040297Y0050756D01*
X0043299Y0047754D01*
X0044050Y0048505D01*
X0044050Y0050006D01*
X0043299Y0050756D01*
X0040297Y0050756D01*
X0039546Y0052358D02*
X0044050Y0052358D01*
X0042549Y0052358D02*
X0041047Y0054610D01*
X0042549Y0052358D02*
X0044050Y0054610D01*
X0043299Y0047754D02*
X0040297Y0047754D01*
X0039546Y0048505D01*
X0039546Y0044651D02*
X0044050Y0044651D01*
X0044050Y0043150D02*
X0044050Y0046153D01*
X0041047Y0043150D02*
X0039546Y0044651D01*
X0053050Y0043801D02*
X0053801Y0043050D01*
X0055302Y0043050D01*
X0056053Y0043801D01*
X0057654Y0043050D02*
X0060656Y0046053D01*
X0060656Y0046803D01*
X0059906Y0047554D01*
X0058405Y0047554D01*
X0057654Y0046803D01*
X0056053Y0046803D02*
X0055302Y0047554D01*
X0053801Y0047554D01*
X0053050Y0046803D01*
X0053050Y0043801D01*
X0057654Y0043050D02*
X0060656Y0043050D01*
X0060633Y0083210D02*
X0060316Y0083210D01*
X0059999Y0083527D01*
X0059999Y0084161D01*
X0060316Y0084478D01*
X0060633Y0084478D01*
X0060950Y0084161D01*
X0060950Y0083527D01*
X0060633Y0083210D01*
X0059999Y0083527D02*
X0059682Y0083210D01*
X0059365Y0083210D01*
X0059048Y0083527D01*
X0059048Y0084161D01*
X0059365Y0084478D01*
X0059682Y0084478D01*
X0059999Y0084161D01*
X0059048Y0085420D02*
X0059682Y0086054D01*
X0059048Y0086688D01*
X0060950Y0086688D01*
X0060950Y0087630D02*
X0059048Y0087630D01*
X0059999Y0087630D02*
X0059999Y0088898D01*
X0059048Y0088898D02*
X0060950Y0088898D01*
X0060950Y0089840D02*
X0060950Y0091108D01*
X0059682Y0091108D02*
X0059682Y0089840D01*
X0059682Y0091108D02*
X0060950Y0089840D01*
X0060950Y0085420D02*
X0059048Y0085420D01*
X0072231Y0088264D02*
X0074767Y0088264D01*
X0074450Y0087947D02*
X0074450Y0088581D01*
X0074133Y0088898D01*
X0073816Y0088898D01*
X0073499Y0088581D01*
X0073499Y0087947D01*
X0073182Y0087630D01*
X0072865Y0087630D01*
X0072548Y0087947D01*
X0072548Y0088581D01*
X0072865Y0088898D01*
X0072865Y0089840D02*
X0073182Y0089840D01*
X0073499Y0090157D01*
X0073499Y0091108D01*
X0072865Y0091108D02*
X0072548Y0090791D01*
X0072548Y0090157D01*
X0072865Y0089840D01*
X0072865Y0091108D02*
X0074133Y0091108D01*
X0074450Y0090791D01*
X0074450Y0090157D01*
X0074133Y0089840D01*
X0074450Y0087947D02*
X0074133Y0087630D01*
X0074133Y0086688D02*
X0072548Y0086688D01*
X0072548Y0085420D02*
X0074133Y0085420D01*
X0074450Y0085737D01*
X0074450Y0086371D01*
X0074133Y0086688D01*
D16*
X0143800Y0086800D03*
D17*
X0156800Y0183800D03*
D18*
X0152600Y0156800D03*
X0181000Y0156800D03*
X0181000Y0011800D03*
X0152600Y0011800D03*
D19*
X0041800Y0037600D03*
X0026800Y0037600D03*
X0026800Y0066000D03*
X0041800Y0066000D03*
D20*
X0093445Y0064616D02*
X0093445Y0067769D01*
X0094496Y0068819D01*
X0096597Y0068819D01*
X0097648Y0067769D01*
X0097648Y0064616D01*
X0099750Y0064616D02*
X0093445Y0064616D01*
X0093445Y0071061D02*
X0093445Y0073163D01*
X0093445Y0072112D02*
X0099750Y0072112D01*
X0099750Y0071061D02*
X0099750Y0073163D01*
X0098699Y0075358D02*
X0099750Y0076409D01*
X0099750Y0078511D01*
X0098699Y0079562D01*
X0098699Y0081804D02*
X0099750Y0082855D01*
X0099750Y0084957D01*
X0098699Y0086007D01*
X0097648Y0086007D01*
X0096597Y0084957D01*
X0096597Y0083906D01*
X0096597Y0084957D02*
X0095546Y0086007D01*
X0094496Y0086007D01*
X0093445Y0084957D01*
X0093445Y0082855D01*
X0094496Y0081804D01*
X0094496Y0079562D02*
X0093445Y0078511D01*
X0093445Y0076409D01*
X0094496Y0075358D01*
X0098699Y0075358D01*
X0099750Y0088249D02*
X0095546Y0092453D01*
X0094496Y0092453D01*
X0093445Y0091402D01*
X0093445Y0089300D01*
X0094496Y0088249D01*
X0099750Y0088249D02*
X0099750Y0092453D01*
X0099750Y0094695D02*
X0093445Y0094695D01*
X0095546Y0096797D01*
X0093445Y0098898D01*
X0099750Y0098898D01*
X0099750Y0101140D02*
X0093445Y0105344D01*
X0094496Y0107586D02*
X0093445Y0108637D01*
X0093445Y0110739D01*
X0094496Y0111789D01*
X0095546Y0111789D01*
X0099750Y0107586D01*
X0099750Y0111789D01*
X0098699Y0114031D02*
X0099750Y0115082D01*
X0099750Y0117184D01*
X0098699Y0118235D01*
X0096597Y0118235D01*
X0095546Y0117184D01*
X0095546Y0116133D01*
X0096597Y0114031D01*
X0093445Y0114031D01*
X0093445Y0118235D01*
X0094496Y0120477D02*
X0093445Y0121528D01*
X0093445Y0123630D01*
X0094496Y0124680D01*
X0098699Y0120477D01*
X0099750Y0121528D01*
X0099750Y0123630D01*
X0098699Y0124680D01*
X0094496Y0124680D01*
X0093445Y0126922D02*
X0093445Y0131126D01*
X0095546Y0133368D02*
X0093445Y0135470D01*
X0099750Y0135470D01*
X0099750Y0137571D02*
X0099750Y0133368D01*
X0096597Y0129024D02*
X0096597Y0126922D01*
X0093445Y0126922D02*
X0099750Y0126922D01*
X0098699Y0120477D02*
X0094496Y0120477D01*
X0099750Y0105344D02*
X0093445Y0101140D01*
X0094496Y0139813D02*
X0093445Y0140864D01*
X0093445Y0142966D01*
X0094496Y0144017D01*
X0095546Y0144017D01*
X0099750Y0139813D01*
X0099750Y0144017D01*
X0098699Y0146259D02*
X0097648Y0146259D01*
X0096597Y0147310D01*
X0096597Y0149412D01*
X0097648Y0150462D01*
X0098699Y0150462D01*
X0099750Y0149412D01*
X0099750Y0147310D01*
X0098699Y0146259D01*
X0096597Y0147310D02*
X0095546Y0146259D01*
X0094496Y0146259D01*
X0093445Y0147310D01*
X0093445Y0149412D01*
X0094496Y0150462D01*
X0095546Y0150462D01*
X0096597Y0149412D01*
X0096597Y0152704D02*
X0096597Y0155857D01*
X0097648Y0156908D01*
X0098699Y0156908D01*
X0099750Y0155857D01*
X0099750Y0152704D01*
X0093445Y0152704D01*
X0093445Y0155857D01*
X0094496Y0156908D01*
X0095546Y0156908D01*
X0096597Y0155857D01*
X0095697Y0166599D02*
X0095697Y0175006D01*
X0094646Y0173955D02*
X0096748Y0173955D01*
X0097799Y0172904D01*
X0096748Y0170803D02*
X0094646Y0170803D01*
X0093595Y0171854D01*
X0093595Y0172904D01*
X0094646Y0173955D01*
X0091354Y0173955D02*
X0091354Y0168701D01*
X0090303Y0167650D01*
X0088201Y0167650D01*
X0087150Y0168701D01*
X0087150Y0173955D01*
X0093595Y0168701D02*
X0094646Y0167650D01*
X0096748Y0167650D01*
X0097799Y0168701D01*
X0097799Y0169752D01*
X0096748Y0170803D01*
X0100041Y0171854D02*
X0102143Y0173955D01*
X0102143Y0167650D01*
X0100041Y0167650D02*
X0104245Y0167650D01*
D21*
X0083729Y0180835D02*
X0083729Y0197765D01*
X0049871Y0197765D01*
X0049871Y0180835D01*
X0083729Y0180835D01*
X0074674Y0199143D02*
X0074674Y0205048D01*
X0072706Y0205048D01*
X0070737Y0203080D01*
X0068769Y0205048D01*
X0066800Y0205048D01*
X0066800Y0199143D01*
D22*
X0064300Y0091800D02*
X0061800Y0089300D01*
X0061800Y0064300D01*
X0064300Y0061800D01*
X0069300Y0061800D01*
X0071800Y0064300D01*
X0071800Y0089300D01*
X0069300Y0091800D01*
X0064300Y0091800D01*
X0066800Y0021800D02*
X0086800Y0021800D01*
X0089300Y0016800D01*
X0091800Y0014300D01*
X0091800Y0009300D01*
X0089300Y0006800D01*
X0086800Y0001800D01*
X0066800Y0001800D01*
X0064300Y0006800D01*
X0061800Y0009300D01*
X0061800Y0014300D01*
X0064300Y0016800D01*
X0066800Y0021800D01*
X0046800Y0014300D02*
X0046800Y0009300D01*
X0044300Y0006800D01*
X0041800Y0001800D01*
X0021800Y0001800D01*
X0019300Y0006800D01*
X0016800Y0009300D01*
X0016800Y0014300D01*
X0019300Y0016800D01*
X0021800Y0021800D01*
X0041800Y0021800D01*
X0044300Y0016800D01*
X0046800Y0014300D01*
M02*
